$MeshFormat
2.2 0 8
$EndMeshFormat
$PhysicalNames
2
2 2 "pec"
3 1 "vacuum"
$EndPhysicalNames
$Nodes
443
1 -11 -11 1.5
2 -11 -11 0
3 -11 11 1.5
4 -11 11 0
5 11 -11 1.5
6 11 -11 0
7 11 11 1.5
8 11 11 0
9 -11 -9.166666666666666 1.5
10 -11 -7.333333333333333 1.5
11 -11 -5.499999999999999 1.5
12 -11 -3.666666666666666 1.5
13 -11 -1.833333333333334 1.5
14 -11 1.77635683940025e-15 1.5
15 -11 1.833333333333336 1.5
16 -11 3.666666666666668 1.5
17 -11 5.5 1.5
18 -11 7.333333333333332 1.5
19 -11 9.166666666666668 1.5
20 -11 -9.166666666666666 0
21 -11 -7.333333333333333 0
22 -11 -5.499999999999999 0
23 -11 -3.666666666666666 0
24 -11 -1.833333333333334 0
25 -11 1.77635683940025e-15 0
26 -11 1.833333333333336 0
27 -11 3.666666666666668 0
28 -11 5.5 0
29 -11 7.333333333333332 0
30 -11 9.166666666666668 0
31 11 -9.166666666666666 1.5
32 11 -7.333333333333333 1.5
33 11 -5.499999999999999 1.5
34 11 -3.666666666666666 1.5
35 11 -1.833333333333334 1.5
36 11 1.77635683940025e-15 1.5
37 11 1.833333333333336 1.5
38 11 3.666666666666668 1.5
39 11 5.5 1.5
40 11 7.333333333333332 1.5
41 11 9.166666666666668 1.5
42 11 -9.166666666666666 0
43 11 -7.333333333333333 0
44 11 -5.499999999999999 0
45 11 -3.666666666666666 0
46 11 -1.833333333333334 0
47 11 1.77635683940025e-15 0
48 11 1.833333333333336 0
49 11 3.666666666666668 0
50 11 5.5 0
51 11 7.333333333333332 0
52 11 9.166666666666668 0
53 -9.166666666666666 -11 0
54 -7.333333333333333 -11 0
55 -5.499999999999999 -11 0
56 -3.666666666666666 -11 0
57 -1.833333333333334 -11 0
58 1.77635683940025e-15 -11 0
59 1.833333333333336 -11 0
60 3.666666666666668 -11 0
61 5.5 -11 0
62 7.333333333333332 -11 0
63 9.166666666666668 -11 0
64 -9.166666666666666 -11 1.5
65 -7.333333333333333 -11 1.5
66 -5.499999999999999 -11 1.5
67 -3.666666666666666 -11 1.5
68 -1.833333333333334 -11 1.5
69 1.77635683940025e-15 -11 1.5
70 1.833333333333336 -11 1.5
71 3.666666666666668 -11 1.5
72 5.5 -11 1.5
73 7.333333333333332 -11 1.5
74 9.166666666666668 -11 1.5
75 -9.166666666666666 11 0
76 -7.333333333333333 11 0
77 -5.499999999999999 11 0
78 -3.666666666666666 11 0
79 -1.833333333333334 11 0
80 1.77635683940025e-15 11 0
81 1.833333333333336 11 0
82 3.666666666666668 11 0
83 5.5 11 0
84 7.333333333333332 11 0
85 9.166666666666668 11 0
86 -9.166666666666666 11 1.5
87 -7.333333333333333 11 1.5
88 -5.499999999999999 11 1.5
89 -3.666666666666666 11 1.5
90 -1.833333333333334 11 1.5
91 1.77635683940025e-15 11 1.5
92 1.833333333333336 11 1.5
93 3.666666666666668 11 1.5
94 5.5 11 1.5
95 7.333333333333332 11 1.5
96 9.166666666666668 11 1.5
97 -11 -10.08333333333333 0.75
98 -11 8.25 0.75
99 -11 -0.9166666666666661 0.75
100 -11 -6.416666666666666 0.75
101 -11 0.9166666666666679 0.75
102 -11 -4.583333333333333 0.7500000000000001
103 -11 10.08333333333334 0.75
104 -11 -8.25 0.75
105 -11 -2.75 0.75
106 -11 2.750000000000004 0.75
107 -11 4.583333333333334 0.75
108 -11 6.416666666666668 0.75
109 11 -10.08333333333333 0.75
110 11 -0.9166666666666661 0.75
111 11 8.25 0.75
112 11 -6.416666666666666 0.75
113 11 0.9166666666666679 0.75
114 11 -4.583333333333333 0.7500000000000001
115 11 10.08333333333334 0.75
116 11 -8.25 0.75
117 11 -2.75 0.75
118 11 2.75 0.75
119 11 4.583333333333334 0.75
120 11 6.416666666666668 0.75
121 -10.08333333333333 -11 0.75
122 8.25 -11 0.75
123 -0.9166666666666661 -11 0.75
124 0.9166666666666679 -11 0.75
125 -6.416666666666666 -11 0.75
126 -8.25 -11 0.75
127 10.08333333333334 -11 0.7499999999999999
128 -4.583333333333332 -11 0.75
129 -2.75 -11 0.75
130 2.75 -11 0.75
131 4.583333333333334 -11 0.75
132 6.416666666666668 -11 0.75
133 -0.9166666666666661 11 0.7499999999999993
134 8.25 11 0.75
135 -10.08333333333333 11 0.75
136 0.9166666666666679 11 0.75
137 -6.416666666666666 11 0.75
138 -8.25 11 0.75
139 10.08333333333333 11 0.75
140 -4.583333333333332 11 0.75
141 -2.75 11 0.75
142 2.750000000000004 11 0.75
143 4.583333333333334 11 0.75
144 6.416666666666668 11 0.75
145 -9.412286759728525 -0.9166666666666679 0
146 0.889924929516825 -9.493733270422291 0
147 9.460045596309993 0.9053518223677131 0
148 -0.873855622028314 9.380946899928162 0
149 -9.412286759728532 4.583333333333337 0
150 4.730686166233685 9.251863203653031 0
151 9.488281880995387 -4.615014897370393 0
152 -4.601226357784256 -9.370761016390944 0
153 9.412286759728531 4.583333333333334 0
154 -4.583333333333332 9.435541442341979 0
155 4.690493134607125 -9.314981409018658 0
156 -9.412286759728524 -4.583333333333333 0
157 9.479835548081461 8.245697196686361 0
158 8.167831334091904 -9.367039048018576 0
159 -9.447584584064309 8.242231489651726 0
160 -9.453223441905488 -8.179095586576178 0
161 -9.41816973045116 6.415371914941957 0
162 -7.825554014577499 5.499784208045888 0
163 -7.824736935310468 3.666630701340985 0
164 -6.237050931014565 4.583291373786711 0
165 -6.236860279185586 2.750000000000012 0
166 -4.649178814218947 3.666659673408912 0
167 -4.649152334798251 1.833332167790385 0
168 -3.061439977174141 2.749998640199898 0
169 -3.061433798642639 0.9166666666666892 0
170 -1.47372158812642 1.83333310670001 0
171 -1.473720729997041 -3.777219959033573e-08 0
172 0.1139924816701132 0.916666622599104 0
173 0.1139926819003136 -0.9166666666666288 0
174 -1.473720586975471 -1.833333339628677 0
175 0.1139924769027232 2.749999954883211 0
176 1.701705854633808 1.833333318469307 0
177 0.1139926771329343 -2.750000001049193 0
178 1.70170592137722 -1.833333333508161 0
179 -1.473720563933096 -3.666666667890738 0
180 -3.061433804337 -2.750000001253229 0
181 1.701705921244802 -3.666666666870642 0
182 3.289419162156332 -2.750000000063098 0
183 1.701705898996972 3.666666661566293 0
184 3.289419147324441 2.749999996672635 0
185 -3.047871948036835 4.559831170534302 0
186 -3.054623653064859 -4.595128855143236 0
187 3.293872521403561 -4.575619889043811 0
188 3.289419162443231 4.583333333333382 0
189 -4.64801201560019 -3.668632587177186 0
190 1.701705918309294 5.499999999149971 0
191 4.877874629160292 -3.66538109262889 0
192 4.877256107074498 -1.83311907100418 0
193 4.877132400194904 3.66666666611215 0
194 -1.448936624897755 -5.507720519670556 0
195 4.882451692778332 -5.49078671927808 0
196 4.877132402294741 5.499999999907622 0
197 -4.641012696644995 -5.514089095117096 0
198 -6.236861161832939 0.9166664724095117 0
199 1.702469255213543 -5.471482554840904 0
200 4.87713239977494 1.833333332686388 0
201 6.4459782547606 -2.749750027272134 0
202 6.464845642986177 2.750000000000052 0
203 6.452576015912634 -0.9324300761756668 0
204 -6.213865966460702 6.558707319817547 0
205 -6.235315384921728 -4.58600916927127 0
206 -6.235247073096732 -6.419460821842505 0
207 -6.23641362625594 -2.750773626074745 0
208 7.971374259440925 -1.867600470167249 0
209 -4.627373541921545 -7.394053915385491 0
210 -6.236860279185533 -8.249999999999996 0
211 -2.965160313339014 -8.261843342695684 0
212 -3.021658989017029 -6.434140025238533 0
213 -1.433722483020734 -7.296819753808812 0
214 -1.214601999421294 -9.243173782499715 0
215 -7.831127432138389 -7.321981623625337 0
216 -8.013683524669487 -9.311554799668938 0
217 -7.824241594924802 -3.667241577002114 0
218 -7.824443756546737 -1.833558089401699 0
219 3.314431265422552 6.373344432109079 0
220 1.748041188128626 7.593887156319607 0
221 0.113992681900287 6.416666666666707 0
222 4.881905484087484 7.296990149322212 0
223 6.46484564298618 6.416666666666718 0
224 6.46484564298618 8.25000000000005 0
225 6.434553941244396 -4.597382644103918 0
226 6.451537894610595 -6.433313453693278 0
227 4.827268040936133 -7.335018084633731 0
228 6.449308406273026 -8.255190566973603 0
229 3.158140563215547 -8.150640925149823 0
230 8.052558883257692 -7.33333333333325 0
231 -6.236764356986813 -0.9168330960667088 0
232 9.435734395815437 2.749037853375938 0
233 -2.682929363399914 9.329065865843425 0
234 -3.666666666666653 7.824573519457061 0
235 0.1216104114375476 -4.57404774225169 0
236 -9.412286759728531 0.9166666666666661 0
237 -7.824536052380102 -6.522995426294642e-05 0
238 -7.824573519457066 1.833333333333332 0
239 0.9166666666666679 9.412286759728531 0
240 -3.061433832963393 -0.9166666742201226 0
241 6.464845642986177 4.58333333333338 0
242 -9.41220981182143 -2.750133277733969 0
243 -9.420201858871575 -6.402957312811364 0
244 -7.826403350613625 -5.496830639647655 0
245 -6.31276328596161 9.503231836659882 0
246 0.1139926432278173 4.583333324822153 0
247 -1.457892080137089 5.472582200825578 0
248 -1.649625113071872 7.536008011272692 0
249 2.730343548289351 9.385427611505527 0
250 1.701705877411323 -9.851046200992641e-09 0
251 -4.631485403220102 5.419839453208816 0
252 3.28943977219622 -0.916630957959951 0
253 -4.649132087356356 -2.796612559841094e-05 0
254 9.430237084810742 6.416405320498441 0
255 -9.4123139957041 2.749994005779053 0
256 -1.472445791048397 3.664457448197178 0
257 -4.648864953916617 -1.833822325152934 0
258 -7.977514557442777 7.389307149156114 0
259 4.87511151673128 -0.002585573186660639 0
260 6.434319430240755 0.8977677207577077 0
261 3.289085761345335 0.9162416844717782 0
262 0.1140937734998211 -6.351853842350501 0
263 3.271177347714447 -6.376620710771855 0
264 1.706164058163484 -7.150506364505311 0
265 -8.099369360443234 9.278318985414582 0
266 9.487416963903748 -2.760991450145152 0
267 7.963873087191509 -0.01337405609180564 0
268 7.981963040515705 -5.51039627697235 0
269 7.949564058983533 1.825908334512711 0
270 7.938566201357347 5.500000000000036 0
271 7.938566201357364 3.666666666666666 0
272 8.00472168670365 7.393487811427921 0
273 9.480451651141028 -0.9283245812283027 0
274 9.526357019887406 -6.416666666666666 0
275 7.968261390143454 -3.683522627671866 0
276 9.526279441628819 -8.242224371992048 0
277 8.125848050280993 9.390186082912972 0
278 -5.372894252280659 8.058749137782598 0
279 -3.084983311113788 6.278531705897269 0
280 1.06581410364015e-14 8.052558883257674 0
281 0.2102670374938249 -8.011540260578709 0
282 2.749999999999998 -9.693539865735129 0
283 3.481081530432341 7.98030251058189 0
284 -6.416666666666612 -9.771899534690668 0
285 6.428193241661074 -9.787442204802167 0
286 6.421869280332913 9.777739892848615 0
287 -2.856197734108914 -9.775155628317268 0
288 -9.657906852790406 9.657906852790397 0
289 -9.657906852790392 -9.657906852790392 0
290 9.662295269201454 -9.662295269201463 0
291 9.667241348315745 9.667241348315745 0
292 -4.660920018418116 6.874885138775181 0
293 1.90291461251997 -8.542527066334703 0
294 -6.795281484517797 8.157662885766143 0
295 -9.412286759728531 -0.9166666666666643 1.5
296 9.412286759728531 -0.9166666666666661 1.5
297 0.9166666666666679 9.412286759728531 1.5
298 -1.171688717668628 -9.258331717833707 1.5
299 -4.614782967944912 9.356673581399495 1.5
300 4.662328067139164 -9.181345328480873 1.5
301 9.460045596309989 4.572018489034388 1.5
302 -9.412286759728531 4.583333333333337 1.5
303 9.412286759728531 -4.583333333333332 1.5
304 4.730686166233671 9.251863203653027 1.5
305 -9.412286759728527 -4.583333333333331 1.5
306 -4.611539207153654 -9.337910845220065 1.5
307 9.241765993717934 -8.114973982655913 1.5
308 9.479835548081461 8.245697196686365 1.5
309 -9.453223441905514 8.179095586576175 1.5
310 -8.081653031728088 -9.339555046358544 1.5
311 -9.419109540091362 6.404849264429366 1.5
312 -7.825710649517536 5.498030432960455 1.5
313 -7.824763041133805 3.666338405493416 1.5
314 -6.237081387808461 4.582950361964544 1.5
315 -6.236928717568855 2.749881461243003 1.5
316 -4.649195296748474 3.666583081645715 1.5
317 -4.649166488283718 1.833299646037023 1.5
318 -3.061445083176638 2.749980454613807 1.5
319 -3.061438920959906 0.9166577945529326 1.5
320 -1.47372329284638 1.833328597083366 1.5
321 -1.473721867836577 -2.268060597998556e-06 1.5
322 0.1139920079102001 0.9166654992815939 1.5
323 0.1139923513243879 -0.9166672392409243 1.5
324 -1.473720831711379 -1.833333806772462 1.5
325 0.1139925812476239 -2.750000174335543 1.5
326 1.701705754744106 -2.899931992317306e-07 1.5
327 1.70170578193548 1.833333090436977 1.5
328 3.289419149095338 0.9166666435474422 1.5
329 3.28941913231399 -0.9166667188520492 1.5
330 3.289419136845876 2.749999955664094 1.5
331 -1.473720620703304 -3.666666774629098 1.5
332 -3.061433854588023 -2.750000096900246 1.5
333 -1.473722894872708 3.666662619727328 1.5
334 4.877132396223837 1.833333322090839 1.5
335 0.1139926547361796 -4.583333380382977 1.5
336 4.877132397366665 3.666666657403626 1.5
337 3.289419157285666 4.583333324400197 1.5
338 -3.061433803774054 -4.583333342221222 1.5
339 -4.649147049093567 -3.666666684298011 1.5
340 4.877132400963763 5.499999996967329 1.5
341 -4.649147041465906 -5.500000004419863 1.5
342 -4.649191933323663 5.49992224060172 1.5
343 -6.236874927144398 0.9166412956577901 1.5
344 1.701705900868987 -3.666666703564173 1.5
345 1.701705914093971 -5.500000013991168 1.5
346 3.289419157546492 -4.583333341814753 1.5
347 3.314431264984854 6.373344430271835 1.5
348 1.705874605069102 5.492779625778688 1.5
349 -3.061433799923158 -6.416666668884611 1.5
350 6.455699961250449 2.734159214563899 1.5
351 6.4443096515886 0.9140265338869327 1.5
352 3.314431263973876 -6.37334443601153 1.5
353 4.881301085487042 -5.492779629637687 1.5
354 4.877827182360658 -3.665463273019826 1.5
355 1.748041187319487 -7.59388715899725 1.5
356 -6.236860281307446 -4.583333337008531 1.5
357 -6.236860281235804 -2.750000003551081 1.5
358 -6.236860279388321 -6.416666667017859 1.5
359 7.971616816468558 1.798571616260293 1.5
360 6.464845642986209 -4.583333333333293 1.5
361 6.515750831302437 -6.542420302226002 1.5
362 6.464845642986202 -2.749999999999957 1.5
363 1.748636714746059 7.592855674146946 1.5
364 0.1139926819002781 6.416666666666682 1.5
365 4.881905483792687 7.296990148525946 1.5
366 6.464845642986159 6.416666666666714 1.5
367 6.464845642986152 8.250000000000046 1.5
368 -7.824573519844478 -5.500000000671061 1.5
369 -7.876071043785094 -7.347164197828931 1.5
370 -6.311989544605984 -8.257754937408233 1.5
371 4.873709729153783 -0.0004400365544618978 1.5
372 6.453911760965791 -0.9168002988916601 1.5
373 0.1139923244414192 2.749999380863077 1.5
374 -9.412318346674654 2.74994528980446 1.5
375 -9.41229202421955 0.9166575483007477 1.5
376 -7.824576838198697 -5.74822912824402e-06 1.5
377 -7.824574072922368 -1.833334291963366 1.5
378 -6.236863366221581 -0.9166720135698441 1.5
379 -4.649147564782618 -1.8333342441643 1.5
380 9.412286759728534 -2.749999999999998 1.5
381 2.730414444315228 9.385304816008777 1.5
382 0.9166666666666696 -9.412286759728529 1.5
383 -1.473720574355859 -5.500000027686311 1.5
384 -1.473720558371143 -7.333333333333313 1.5
385 -2.983925052234875 -8.242823684181126 1.5
386 -9.412286851972747 -2.750000159771671 1.5
387 -9.412286759728495 -6.416666666666666 1.5
388 -6.23709413470108 6.416261617032234 1.5
389 -4.643466152073432 7.364920684283362 1.5
390 -3.0604944665708 6.421918265258643 1.5
391 -6.236860279185611 8.250000000000011 1.5
392 -3.061433798642667 8.250000000000028 1.5
393 -1.492562783342599 7.301301746974957 1.5
394 -1.271208787198201 9.226385648885611 1.5
395 -3.061435013132101 -0.9166687702241063 1.5
396 6.435176901434421 4.564852418359516 1.5
397 -7.824573627835228 -3.666666854383175 1.5
398 9.453561745255019 -6.311476778852982 1.5
399 2.711087950954479 -9.362930973467227 1.5
400 6.495902862762897 -9.449302252799825 1.5
401 9.469502257851023 6.414063725397913 1.5
402 -3.061295038843912 4.584177776974542 1.5
403 -7.82462564915666 1.833243042045048 1.5
404 3.289534949662773 -2.749799450652901 1.5
405 -4.642482487461983 -7.361970467855294 1.5
406 4.799940330304766 -7.283566690488643 1.5
407 0.1139926819003207 -6.416666666666643 1.5
408 4.874874732907196 -1.833194962995144 1.5
409 1.701725111693642 -1.833300096106466 1.5
410 -4.649154380087388 -1.271528508439701e-05 1.5
411 -7.832761927476363 7.319150594610814 1.5
412 -1.476681636638242 5.495676734822581 1.5
413 1.70240061457964 3.665463118412731 1.5
414 0.1143092824132488 4.581208024378514 1.5
415 -8.013917024003508 9.311150366952585 1.5
416 8.204815954965351 -9.525169171791585 1.5
417 -9.493092789385429 -8.195895845079432 1.5
418 7.428887684799903 -8.098421597707945 1.5
419 9.474791536530539 0.910873047154503 1.5
420 7.96457708278469 3.653266956369693 1.5
421 8.011265882210353 7.393097545577834 1.5
422 7.967568893929435 5.502327633567674 1.5
423 7.93856620135735 -1.833333333333291 1.5
424 7.98562711622597 -5.420741739701255 1.5
425 7.938566201357357 -3.666666666666612 1.5
426 9.478505172015627 2.739121684803147 1.5
427 7.938488623098753 5.329070518200751e-14 1.5
428 8.126515825332692 9.390146259867045 1.5
429 0.006939361716327141 -8.039632561947304 1.5
430 0.002217784681739943 8.007802037559721 1.5
431 3.444973195556411 -7.967886824948421 1.5
432 3.4812148148145 7.980071654521307 1.5
433 -2.749999999999998 -9.760143048516499 1.5
434 -6.367703023364212 -9.787044165797369 1.5
435 -6.416666666666665 9.7718995346907 1.5
436 6.424018466110802 9.777889490846952 1.5
437 -2.881279451241129 9.757798547883894 1.5
438 -9.657906852790406 9.657906852790397 1.5
439 9.657906852790394 -9.657906852790395 1.5
440 -9.657906852790392 -9.657906852790392 1.5
441 9.667241348315745 9.667241348315745 1.5
442 5.984835150370273 -8.118728156748729 1.5
443 8.127805858025205 -6.852939217993946 1.5
$EndNodes
$Elements
2082
1 2 2 2 1 2 1 97
2 2 2 2 1 1 9 97
3 2 2 2 1 20 2 97
4 2 2 2 1 3 4 103
5 2 2 2 1 19 3 103
6 2 2 2 1 4 30 103
7 2 2 2 1 9 10 104
8 2 2 2 1 9 20 97
9 2 2 2 1 20 9 104
10 2 2 2 1 10 11 100
11 2 2 2 1 21 10 100
12 2 2 2 1 10 21 104
13 2 2 2 1 11 12 102
14 2 2 2 1 11 22 100
15 2 2 2 1 22 11 102
16 2 2 2 1 12 13 105
17 2 2 2 1 12 23 102
18 2 2 2 1 23 12 105
19 2 2 2 1 13 14 99
20 2 2 2 1 24 13 99
21 2 2 2 1 13 24 105
22 2 2 2 1 14 15 101
23 2 2 2 1 14 25 99
24 2 2 2 1 25 14 101
25 2 2 2 1 15 16 106
26 2 2 2 1 15 26 101
27 2 2 2 1 26 15 106
28 2 2 2 1 16 17 107
29 2 2 2 1 16 27 106
30 2 2 2 1 27 16 107
31 2 2 2 1 17 18 108
32 2 2 2 1 17 28 107
33 2 2 2 1 28 17 108
34 2 2 2 1 18 19 98
35 2 2 2 1 29 18 98
36 2 2 2 1 18 29 108
37 2 2 2 1 19 30 98
38 2 2 2 1 30 19 103
39 2 2 2 1 21 20 104
40 2 2 2 1 22 21 100
41 2 2 2 1 23 22 102
42 2 2 2 1 24 23 105
43 2 2 2 1 25 24 99
44 2 2 2 1 26 25 101
45 2 2 2 1 27 26 106
46 2 2 2 1 28 27 107
47 2 2 2 1 29 28 108
48 2 2 2 1 30 29 98
49 2 2 2 2 6 109 5
50 2 2 2 2 5 109 31
51 2 2 2 2 42 109 6
52 2 2 2 2 7 115 8
53 2 2 2 2 41 115 7
54 2 2 2 2 8 115 52
55 2 2 2 2 31 116 32
56 2 2 2 2 31 109 42
57 2 2 2 2 42 116 31
58 2 2 2 2 32 112 33
59 2 2 2 2 43 112 32
60 2 2 2 2 32 116 43
61 2 2 2 2 33 114 34
62 2 2 2 2 33 112 44
63 2 2 2 2 44 114 33
64 2 2 2 2 34 117 35
65 2 2 2 2 34 114 45
66 2 2 2 2 45 117 34
67 2 2 2 2 35 110 36
68 2 2 2 2 46 110 35
69 2 2 2 2 35 117 46
70 2 2 2 2 36 113 37
71 2 2 2 2 36 110 47
72 2 2 2 2 47 113 36
73 2 2 2 2 37 118 38
74 2 2 2 2 37 113 48
75 2 2 2 2 48 118 37
76 2 2 2 2 38 119 39
77 2 2 2 2 38 118 49
78 2 2 2 2 49 119 38
79 2 2 2 2 39 120 40
80 2 2 2 2 39 119 50
81 2 2 2 2 50 120 39
82 2 2 2 2 40 111 41
83 2 2 2 2 51 111 40
84 2 2 2 2 40 120 51
85 2 2 2 2 41 111 52
86 2 2 2 2 52 115 41
87 2 2 2 2 43 116 42
88 2 2 2 2 44 112 43
89 2 2 2 2 45 114 44
90 2 2 2 2 46 117 45
91 2 2 2 2 47 110 46
92 2 2 2 2 48 113 47
93 2 2 2 2 49 118 48
94 2 2 2 2 50 119 49
95 2 2 2 2 51 120 50
96 2 2 2 2 52 111 51
97 2 2 2 3 1 2 121
98 2 2 2 3 64 1 121
99 2 2 2 3 2 53 121
100 2 2 2 3 6 5 127
101 2 2 2 3 5 74 127
102 2 2 2 3 63 6 127
103 2 2 2 3 53 54 126
104 2 2 2 3 53 64 121
105 2 2 2 3 64 53 126
106 2 2 2 3 54 55 125
107 2 2 2 3 65 54 125
108 2 2 2 3 54 65 126
109 2 2 2 3 55 56 128
110 2 2 2 3 55 66 125
111 2 2 2 3 66 55 128
112 2 2 2 3 56 57 129
113 2 2 2 3 56 67 128
114 2 2 2 3 67 56 129
115 2 2 2 3 57 58 123
116 2 2 2 3 68 57 123
117 2 2 2 3 57 68 129
118 2 2 2 3 58 59 124
119 2 2 2 3 58 69 123
120 2 2 2 3 69 58 124
121 2 2 2 3 59 60 130
122 2 2 2 3 59 70 124
123 2 2 2 3 70 59 130
124 2 2 2 3 60 61 131
125 2 2 2 3 60 71 130
126 2 2 2 3 71 60 131
127 2 2 2 3 61 62 132
128 2 2 2 3 61 72 131
129 2 2 2 3 72 61 132
130 2 2 2 3 62 63 122
131 2 2 2 3 73 62 122
132 2 2 2 3 62 73 132
133 2 2 2 3 63 74 122
134 2 2 2 3 74 63 127
135 2 2 2 3 65 64 126
136 2 2 2 3 66 65 125
137 2 2 2 3 67 66 128
138 2 2 2 3 68 67 129
139 2 2 2 3 69 68 123
140 2 2 2 3 70 69 124
141 2 2 2 3 71 70 130
142 2 2 2 3 72 71 131
143 2 2 2 3 73 72 132
144 2 2 2 3 74 73 122
145 2 2 2 4 3 135 4
146 2 2 2 4 86 135 3
147 2 2 2 4 4 135 75
148 2 2 2 4 8 139 7
149 2 2 2 4 7 139 96
150 2 2 2 4 85 139 8
151 2 2 2 4 75 138 76
152 2 2 2 4 75 135 86
153 2 2 2 4 86 138 75
154 2 2 2 4 76 137 77
155 2 2 2 4 87 137 76
156 2 2 2 4 76 138 87
157 2 2 2 4 77 140 78
158 2 2 2 4 77 137 88
159 2 2 2 4 88 140 77
160 2 2 2 4 78 141 79
161 2 2 2 4 78 140 89
162 2 2 2 4 89 141 78
163 2 2 2 4 79 133 80
164 2 2 2 4 90 133 79
165 2 2 2 4 79 141 90
166 2 2 2 4 80 136 81
167 2 2 2 4 80 133 91
168 2 2 2 4 91 136 80
169 2 2 2 4 81 142 82
170 2 2 2 4 81 136 92
171 2 2 2 4 92 142 81
172 2 2 2 4 82 143 83
173 2 2 2 4 82 142 93
174 2 2 2 4 93 143 82
175 2 2 2 4 83 144 84
176 2 2 2 4 83 143 94
177 2 2 2 4 94 144 83
178 2 2 2 4 84 134 85
179 2 2 2 4 95 134 84
180 2 2 2 4 84 144 95
181 2 2 2 4 85 134 96
182 2 2 2 4 96 139 85
183 2 2 2 4 87 138 86
184 2 2 2 4 88 137 87
185 2 2 2 4 89 140 88
186 2 2 2 4 90 141 89
187 2 2 2 4 91 133 90
188 2 2 2 4 92 136 91
189 2 2 2 4 93 142 92
190 2 2 2 4 94 143 93
191 2 2 2 4 95 144 94
192 2 2 2 4 96 134 95
193 2 2 2 5 2 20 289
194 2 2 2 5 53 2 289
195 2 2 2 5 30 4 288
196 2 2 2 5 4 75 288
197 2 2 2 5 42 6 290
198 2 2 2 5 6 63 290
199 2 2 2 5 8 52 291
200 2 2 2 5 85 8 291
201 2 2 2 5 20 21 160
202 2 2 2 5 20 160 289
203 2 2 2 5 21 22 243
204 2 2 2 5 160 21 243
205 2 2 2 5 22 23 156
206 2 2 2 5 22 156 243
207 2 2 2 5 23 24 242
208 2 2 2 5 156 23 242
209 2 2 2 5 24 25 145
210 2 2 2 5 24 145 242
211 2 2 2 5 25 26 236
212 2 2 2 5 145 25 236
213 2 2 2 5 26 27 255
214 2 2 2 5 236 26 255
215 2 2 2 5 27 28 149
216 2 2 2 5 27 149 255
217 2 2 2 5 28 29 161
218 2 2 2 5 149 28 161
219 2 2 2 5 29 30 159
220 2 2 2 5 29 159 161
221 2 2 2 5 159 30 288
222 2 2 2 5 43 42 276
223 2 2 2 5 276 42 290
224 2 2 2 5 44 43 274
225 2 2 2 5 274 43 276
226 2 2 2 5 45 44 151
227 2 2 2 5 151 44 274
228 2 2 2 5 46 45 266
229 2 2 2 5 45 151 266
230 2 2 2 5 47 46 273
231 2 2 2 5 46 266 273
232 2 2 2 5 48 47 147
233 2 2 2 5 147 47 273
234 2 2 2 5 49 48 232
235 2 2 2 5 48 147 232
236 2 2 2 5 50 49 153
237 2 2 2 5 153 49 232
238 2 2 2 5 51 50 254
239 2 2 2 5 50 153 254
240 2 2 2 5 52 51 157
241 2 2 2 5 157 51 254
242 2 2 2 5 52 157 291
243 2 2 2 5 54 53 216
244 2 2 2 5 216 53 289
245 2 2 2 5 55 54 284
246 2 2 2 5 54 216 284
247 2 2 2 5 56 55 152
248 2 2 2 5 152 55 284
249 2 2 2 5 57 56 287
250 2 2 2 5 56 152 287
251 2 2 2 5 58 57 214
252 2 2 2 5 214 57 287
253 2 2 2 5 59 58 146
254 2 2 2 5 146 58 214
255 2 2 2 5 60 59 282
256 2 2 2 5 59 146 282
257 2 2 2 5 61 60 155
258 2 2 2 5 155 60 282
259 2 2 2 5 62 61 285
260 2 2 2 5 61 155 285
261 2 2 2 5 63 62 158
262 2 2 2 5 158 62 285
263 2 2 2 5 63 158 290
264 2 2 2 5 75 76 265
265 2 2 2 5 75 265 288
266 2 2 2 5 76 77 245
267 2 2 2 5 76 245 265
268 2 2 2 5 77 78 154
269 2 2 2 5 77 154 245
270 2 2 2 5 78 79 233
271 2 2 2 5 154 78 233
272 2 2 2 5 79 80 148
273 2 2 2 5 79 148 233
274 2 2 2 5 80 81 239
275 2 2 2 5 148 80 239
276 2 2 2 5 81 82 249
277 2 2 2 5 239 81 249
278 2 2 2 5 82 83 150
279 2 2 2 5 82 150 249
280 2 2 2 5 83 84 286
281 2 2 2 5 150 83 286
282 2 2 2 5 84 85 277
283 2 2 2 5 84 277 286
284 2 2 2 5 277 85 291
285 2 2 2 5 218 145 237
286 2 2 2 5 145 218 242
287 2 2 2 5 145 236 237
288 2 2 2 5 146 214 281
289 2 2 2 5 146 281 293
290 2 2 2 5 282 146 293
291 2 2 2 5 232 147 269
292 2 2 2 5 147 267 269
293 2 2 2 5 267 147 273
294 2 2 2 5 233 148 248
295 2 2 2 5 148 239 280
296 2 2 2 5 248 148 280
297 2 2 2 5 149 161 162
298 2 2 2 5 149 162 163
299 2 2 2 5 149 163 255
300 2 2 2 5 222 150 224
301 2 2 2 5 150 222 283
302 2 2 2 5 224 150 286
303 2 2 2 5 249 150 283
304 2 2 2 5 266 151 275
305 2 2 2 5 268 151 274
306 2 2 2 5 151 268 275
307 2 2 2 5 209 152 210
308 2 2 2 5 152 209 211
309 2 2 2 5 210 152 284
310 2 2 2 5 152 211 287
311 2 2 2 5 153 232 271
312 2 2 2 5 254 153 270
313 2 2 2 5 270 153 271
314 2 2 2 5 154 233 234
315 2 2 2 5 154 234 278
316 2 2 2 5 245 154 278
317 2 2 2 5 155 227 228
318 2 2 2 5 227 155 229
319 2 2 2 5 155 228 285
320 2 2 2 5 229 155 282
321 2 2 2 5 217 156 242
322 2 2 2 5 156 217 244
323 2 2 2 5 243 156 244
324 2 2 2 5 157 254 272
325 2 2 2 5 157 272 277
326 2 2 2 5 157 277 291
327 2 2 2 5 158 228 230
328 2 2 2 5 228 158 285
329 2 2 2 5 158 230 276
330 2 2 2 5 158 276 290
331 2 2 2 5 161 159 258
332 2 2 2 5 258 159 265
333 2 2 2 5 265 159 288
334 2 2 2 5 160 215 216
335 2 2 2 5 215 160 243
336 2 2 2 5 160 216 289
337 2 2 2 5 162 161 258
338 2 2 2 5 163 162 164
339 2 2 2 5 164 162 204
340 2 2 2 5 204 162 258
341 2 2 2 5 163 164 165
342 2 2 2 5 163 165 238
343 2 2 2 5 163 238 255
344 2 2 2 5 165 164 166
345 2 2 2 5 166 164 251
346 2 2 2 5 164 204 251
347 2 2 2 5 165 166 167
348 2 2 2 5 165 167 198
349 2 2 2 5 165 198 238
350 2 2 2 5 167 166 168
351 2 2 2 5 168 166 185
352 2 2 2 5 185 166 251
353 2 2 2 5 167 168 169
354 2 2 2 5 167 169 253
355 2 2 2 5 198 167 253
356 2 2 2 5 169 168 170
357 2 2 2 5 170 168 256
358 2 2 2 5 168 185 256
359 2 2 2 5 169 170 171
360 2 2 2 5 169 171 240
361 2 2 2 5 169 240 253
362 2 2 2 5 171 170 172
363 2 2 2 5 172 170 175
364 2 2 2 5 175 170 256
365 2 2 2 5 171 172 173
366 2 2 2 5 171 173 174
367 2 2 2 5 171 174 240
368 2 2 2 5 173 172 250
369 2 2 2 5 172 175 176
370 2 2 2 5 172 176 250
371 2 2 2 5 174 173 177
372 2 2 2 5 177 173 178
373 2 2 2 5 178 173 250
374 2 2 2 5 174 177 179
375 2 2 2 5 174 179 180
376 2 2 2 5 174 180 240
377 2 2 2 5 176 175 183
378 2 2 2 5 183 175 246
379 2 2 2 5 246 175 256
380 2 2 2 5 176 183 184
381 2 2 2 5 176 184 261
382 2 2 2 5 250 176 261
383 2 2 2 5 177 178 181
384 2 2 2 5 179 177 235
385 2 2 2 5 177 181 235
386 2 2 2 5 181 178 182
387 2 2 2 5 182 178 252
388 2 2 2 5 178 250 252
389 2 2 2 5 180 179 186
390 2 2 2 5 186 179 194
391 2 2 2 5 194 179 235
392 2 2 2 5 180 186 189
393 2 2 2 5 180 189 257
394 2 2 2 5 240 180 257
395 2 2 2 5 181 182 187
396 2 2 2 5 181 187 199
397 2 2 2 5 181 199 235
398 2 2 2 5 187 182 191
399 2 2 2 5 191 182 192
400 2 2 2 5 192 182 252
401 2 2 2 5 184 183 188
402 2 2 2 5 188 183 190
403 2 2 2 5 190 183 246
404 2 2 2 5 184 188 193
405 2 2 2 5 184 193 200
406 2 2 2 5 184 200 261
407 2 2 2 5 185 247 256
408 2 2 2 5 247 185 279
409 2 2 2 5 185 251 279
410 2 2 2 5 189 186 197
411 2 2 2 5 186 194 212
412 2 2 2 5 197 186 212
413 2 2 2 5 187 191 195
414 2 2 2 5 187 195 263
415 2 2 2 5 199 187 263
416 2 2 2 5 188 190 219
417 2 2 2 5 193 188 196
418 2 2 2 5 196 188 219
419 2 2 2 5 189 197 205
420 2 2 2 5 189 205 207
421 2 2 2 5 189 207 257
422 2 2 2 5 219 190 220
423 2 2 2 5 220 190 221
424 2 2 2 5 221 190 246
425 2 2 2 5 191 192 201
426 2 2 2 5 195 191 225
427 2 2 2 5 191 201 225
428 2 2 2 5 201 192 203
429 2 2 2 5 203 192 259
430 2 2 2 5 192 252 259
431 2 2 2 5 193 196 241
432 2 2 2 5 200 193 202
433 2 2 2 5 202 193 241
434 2 2 2 5 212 194 213
435 2 2 2 5 213 194 262
436 2 2 2 5 194 235 262
437 2 2 2 5 195 225 226
438 2 2 2 5 195 226 227
439 2 2 2 5 195 227 263
440 2 2 2 5 196 219 222
441 2 2 2 5 196 222 223
442 2 2 2 5 196 223 241
443 2 2 2 5 205 197 206
444 2 2 2 5 206 197 209
445 2 2 2 5 209 197 212
446 2 2 2 5 198 231 237
447 2 2 2 5 231 198 253
448 2 2 2 5 198 237 238
449 2 2 2 5 235 199 262
450 2 2 2 5 262 199 264
451 2 2 2 5 199 263 264
452 2 2 2 5 200 202 260
453 2 2 2 5 259 200 260
454 2 2 2 5 200 259 261
455 2 2 2 5 201 203 208
456 2 2 2 5 201 208 275
457 2 2 2 5 225 201 275
458 2 2 2 5 202 241 271
459 2 2 2 5 260 202 269
460 2 2 2 5 269 202 271
461 2 2 2 5 208 203 267
462 2 2 2 5 203 259 260
463 2 2 2 5 203 260 267
464 2 2 2 5 251 204 292
465 2 2 2 5 204 258 294
466 2 2 2 5 204 278 292
467 2 2 2 5 278 204 294
468 2 2 2 5 205 206 244
469 2 2 2 5 207 205 217
470 2 2 2 5 217 205 244
471 2 2 2 5 206 209 210
472 2 2 2 5 206 210 215
473 2 2 2 5 206 215 244
474 2 2 2 5 207 217 218
475 2 2 2 5 207 218 231
476 2 2 2 5 207 231 257
477 2 2 2 5 266 208 273
478 2 2 2 5 208 266 275
479 2 2 2 5 208 267 273
480 2 2 2 5 211 209 212
481 2 2 2 5 215 210 216
482 2 2 2 5 216 210 284
483 2 2 2 5 211 212 213
484 2 2 2 5 211 213 214
485 2 2 2 5 211 214 287
486 2 2 2 5 214 213 281
487 2 2 2 5 213 262 281
488 2 2 2 5 215 243 244
489 2 2 2 5 218 217 242
490 2 2 2 5 231 218 237
491 2 2 2 5 219 220 283
492 2 2 2 5 222 219 283
493 2 2 2 5 220 221 280
494 2 2 2 5 220 239 249
495 2 2 2 5 239 220 280
496 2 2 2 5 220 249 283
497 2 2 2 5 221 246 247
498 2 2 2 5 221 247 248
499 2 2 2 5 221 248 280
500 2 2 2 5 223 222 224
501 2 2 2 5 223 224 272
502 2 2 2 5 241 223 270
503 2 2 2 5 270 223 272
504 2 2 2 5 272 224 277
505 2 2 2 5 277 224 286
506 2 2 2 5 226 225 268
507 2 2 2 5 268 225 275
508 2 2 2 5 227 226 228
509 2 2 2 5 228 226 230
510 2 2 2 5 230 226 268
511 2 2 2 5 227 229 263
512 2 2 2 5 263 229 264
513 2 2 2 5 264 229 293
514 2 2 2 5 229 282 293
515 2 2 2 5 230 268 274
516 2 2 2 5 230 274 276
517 2 2 2 5 231 253 257
518 2 2 2 5 232 269 271
519 2 2 2 5 234 233 248
520 2 2 2 5 234 248 279
521 2 2 2 5 278 234 292
522 2 2 2 5 234 279 292
523 2 2 2 5 237 236 238
524 2 2 2 5 238 236 255
525 2 2 2 5 253 240 257
526 2 2 2 5 241 270 271
527 2 2 2 5 265 245 294
528 2 2 2 5 245 278 294
529 2 2 2 5 247 246 256
530 2 2 2 5 248 247 279
531 2 2 2 5 252 250 261
532 2 2 2 5 279 251 292
533 2 2 2 5 259 252 261
534 2 2 2 5 254 270 272
535 2 2 2 5 258 265 294
536 2 2 2 5 267 260 269
537 2 2 2 5 262 264 281
538 2 2 2 5 281 264 293
539 2 2 2 6 1 440 9
540 2 2 2 6 64 440 1
541 2 2 2 6 19 438 3
542 2 2 2 6 3 438 86
543 2 2 2 6 31 439 5
544 2 2 2 6 5 439 74
545 2 2 2 6 7 441 41
546 2 2 2 6 96 441 7
547 2 2 2 6 9 417 10
548 2 2 2 6 9 440 417
549 2 2 2 6 10 387 11
550 2 2 2 6 10 417 387
551 2 2 2 6 11 305 12
552 2 2 2 6 11 387 305
553 2 2 2 6 12 386 13
554 2 2 2 6 305 386 12
555 2 2 2 6 13 295 14
556 2 2 2 6 13 386 295
557 2 2 2 6 14 375 15
558 2 2 2 6 295 375 14
559 2 2 2 6 15 374 16
560 2 2 2 6 15 375 374
561 2 2 2 6 16 302 17
562 2 2 2 6 16 374 302
563 2 2 2 6 17 311 18
564 2 2 2 6 302 311 17
565 2 2 2 6 18 309 19
566 2 2 2 6 18 311 309
567 2 2 2 6 309 438 19
568 2 2 2 6 32 307 31
569 2 2 2 6 307 439 31
570 2 2 2 6 33 398 32
571 2 2 2 6 32 398 307
572 2 2 2 6 34 303 33
573 2 2 2 6 303 398 33
574 2 2 2 6 35 380 34
575 2 2 2 6 34 380 303
576 2 2 2 6 36 296 35
577 2 2 2 6 296 380 35
578 2 2 2 6 37 419 36
579 2 2 2 6 36 419 296
580 2 2 2 6 38 426 37
581 2 2 2 6 37 426 419
582 2 2 2 6 39 301 38
583 2 2 2 6 301 426 38
584 2 2 2 6 40 401 39
585 2 2 2 6 39 401 301
586 2 2 2 6 41 308 40
587 2 2 2 6 308 401 40
588 2 2 2 6 41 441 308
589 2 2 2 6 65 310 64
590 2 2 2 6 310 440 64
591 2 2 2 6 66 434 65
592 2 2 2 6 65 434 310
593 2 2 2 6 67 306 66
594 2 2 2 6 306 434 66
595 2 2 2 6 68 433 67
596 2 2 2 6 67 433 306
597 2 2 2 6 69 298 68
598 2 2 2 6 298 433 68
599 2 2 2 6 70 382 69
600 2 2 2 6 69 382 298
601 2 2 2 6 71 399 70
602 2 2 2 6 70 399 382
603 2 2 2 6 72 300 71
604 2 2 2 6 300 399 71
605 2 2 2 6 73 400 72
606 2 2 2 6 72 400 300
607 2 2 2 6 74 416 73
608 2 2 2 6 73 416 400
609 2 2 2 6 74 439 416
610 2 2 2 6 86 415 87
611 2 2 2 6 86 438 415
612 2 2 2 6 87 435 88
613 2 2 2 6 415 435 87
614 2 2 2 6 88 299 89
615 2 2 2 6 88 435 299
616 2 2 2 6 89 437 90
617 2 2 2 6 299 437 89
618 2 2 2 6 90 394 91
619 2 2 2 6 90 437 394
620 2 2 2 6 91 297 92
621 2 2 2 6 91 394 297
622 2 2 2 6 92 381 93
623 2 2 2 6 297 381 92
624 2 2 2 6 93 304 94
625 2 2 2 6 93 381 304
626 2 2 2 6 94 436 95
627 2 2 2 6 304 436 94
628 2 2 2 6 95 428 96
629 2 2 2 6 95 436 428
630 2 2 2 6 428 441 96
631 2 2 2 6 295 376 375
632 2 2 2 6 295 377 376
633 2 2 2 6 295 386 377
634 2 2 2 6 296 423 380
635 2 2 2 6 419 427 296
636 2 2 2 6 296 427 423
637 2 2 2 6 363 381 297
638 2 2 2 6 297 430 363
639 2 2 2 6 394 430 297
640 2 2 2 6 382 429 298
641 2 2 2 6 384 385 298
642 2 2 2 6 298 429 384
643 2 2 2 6 385 433 298
644 2 2 2 6 299 391 389
645 2 2 2 6 389 392 299
646 2 2 2 6 299 435 391
647 2 2 2 6 392 437 299
648 2 2 2 6 300 431 399
649 2 2 2 6 400 442 300
650 2 2 2 6 406 431 300
651 2 2 2 6 300 442 406
652 2 2 2 6 401 422 301
653 2 2 2 6 301 422 420
654 2 2 2 6 420 426 301
655 2 2 2 6 302 312 311
656 2 2 2 6 302 313 312
657 2 2 2 6 302 374 313
658 2 2 2 6 380 425 303
659 2 2 2 6 303 424 398
660 2 2 2 6 303 425 424
661 2 2 2 6 365 367 304
662 2 2 2 6 304 432 365
663 2 2 2 6 367 436 304
664 2 2 2 6 381 432 304
665 2 2 2 6 305 387 368
666 2 2 2 6 368 397 305
667 2 2 2 6 305 397 386
668 2 2 2 6 306 405 370
669 2 2 2 6 370 434 306
670 2 2 2 6 385 405 306
671 2 2 2 6 306 433 385
672 2 2 2 6 398 443 307
673 2 2 2 6 307 418 416
674 2 2 2 6 416 439 307
675 2 2 2 6 307 443 418
676 2 2 2 6 308 421 401
677 2 2 2 6 308 428 421
678 2 2 2 6 308 441 428
679 2 2 2 6 311 411 309
680 2 2 2 6 411 415 309
681 2 2 2 6 415 438 309
682 2 2 2 6 310 370 369
683 2 2 2 6 369 417 310
684 2 2 2 6 310 434 370
685 2 2 2 6 417 440 310
686 2 2 2 6 312 411 311
687 2 2 2 6 313 314 312
688 2 2 2 6 314 388 312
689 2 2 2 6 388 411 312
690 2 2 2 6 313 315 314
691 2 2 2 6 313 403 315
692 2 2 2 6 374 403 313
693 2 2 2 6 315 316 314
694 2 2 2 6 316 342 314
695 2 2 2 6 342 388 314
696 2 2 2 6 315 317 316
697 2 2 2 6 315 343 317
698 2 2 2 6 315 403 343
699 2 2 2 6 317 318 316
700 2 2 2 6 318 402 316
701 2 2 2 6 316 402 342
702 2 2 2 6 317 319 318
703 2 2 2 6 317 410 319
704 2 2 2 6 343 410 317
705 2 2 2 6 319 320 318
706 2 2 2 6 320 333 318
707 2 2 2 6 333 402 318
708 2 2 2 6 319 321 320
709 2 2 2 6 319 395 321
710 2 2 2 6 319 410 395
711 2 2 2 6 321 322 320
712 2 2 2 6 322 373 320
713 2 2 2 6 320 373 333
714 2 2 2 6 321 323 322
715 2 2 2 6 321 324 323
716 2 2 2 6 321 395 324
717 2 2 2 6 323 326 322
718 2 2 2 6 326 327 322
719 2 2 2 6 327 373 322
720 2 2 2 6 324 325 323
721 2 2 2 6 325 409 323
722 2 2 2 6 323 409 326
723 2 2 2 6 324 331 325
724 2 2 2 6 324 332 331
725 2 2 2 6 324 395 332
726 2 2 2 6 331 335 325
727 2 2 2 6 335 344 325
728 2 2 2 6 344 409 325
729 2 2 2 6 326 328 327
730 2 2 2 6 326 329 328
731 2 2 2 6 326 409 329
732 2 2 2 6 328 330 327
733 2 2 2 6 330 413 327
734 2 2 2 6 327 413 373
735 2 2 2 6 329 371 328
736 2 2 2 6 328 334 330
737 2 2 2 6 328 371 334
738 2 2 2 6 329 408 371
739 2 2 2 6 404 408 329
740 2 2 2 6 329 409 404
741 2 2 2 6 334 336 330
742 2 2 2 6 336 337 330
743 2 2 2 6 337 413 330
744 2 2 2 6 332 338 331
745 2 2 2 6 331 383 335
746 2 2 2 6 338 383 331
747 2 2 2 6 332 339 338
748 2 2 2 6 332 379 339
749 2 2 2 6 332 395 379
750 2 2 2 6 373 414 333
751 2 2 2 6 333 412 402
752 2 2 2 6 333 414 412
753 2 2 2 6 334 350 336
754 2 2 2 6 334 351 350
755 2 2 2 6 334 371 351
756 2 2 2 6 335 345 344
757 2 2 2 6 335 407 345
758 2 2 2 6 383 407 335
759 2 2 2 6 336 340 337
760 2 2 2 6 336 396 340
761 2 2 2 6 350 396 336
762 2 2 2 6 340 347 337
763 2 2 2 6 347 348 337
764 2 2 2 6 348 413 337
765 2 2 2 6 339 341 338
766 2 2 2 6 341 349 338
767 2 2 2 6 349 383 338
768 2 2 2 6 339 356 341
769 2 2 2 6 339 357 356
770 2 2 2 6 339 379 357
771 2 2 2 6 340 365 347
772 2 2 2 6 340 366 365
773 2 2 2 6 340 396 366
774 2 2 2 6 341 405 349
775 2 2 2 6 356 358 341
776 2 2 2 6 358 405 341
777 2 2 2 6 342 389 388
778 2 2 2 6 342 390 389
779 2 2 2 6 342 402 390
780 2 2 2 6 376 378 343
781 2 2 2 6 343 403 376
782 2 2 2 6 378 410 343
783 2 2 2 6 345 346 344
784 2 2 2 6 346 404 344
785 2 2 2 6 404 409 344
786 2 2 2 6 345 352 346
787 2 2 2 6 345 355 352
788 2 2 2 6 345 407 355
789 2 2 2 6 352 353 346
790 2 2 2 6 353 354 346
791 2 2 2 6 354 404 346
792 2 2 2 6 347 363 348
793 2 2 2 6 347 432 363
794 2 2 2 6 365 432 347
795 2 2 2 6 363 364 348
796 2 2 2 6 364 414 348
797 2 2 2 6 348 414 413
798 2 2 2 6 349 384 383
799 2 2 2 6 349 385 384
800 2 2 2 6 349 405 385
801 2 2 2 6 351 359 350
802 2 2 2 6 359 420 350
803 2 2 2 6 350 420 396
804 2 2 2 6 351 427 359
805 2 2 2 6 371 372 351
806 2 2 2 6 372 427 351
807 2 2 2 6 352 406 353
808 2 2 2 6 355 431 352
809 2 2 2 6 352 431 406
810 2 2 2 6 353 360 354
811 2 2 2 6 353 361 360
812 2 2 2 6 353 406 361
813 2 2 2 6 360 362 354
814 2 2 2 6 362 408 354
815 2 2 2 6 354 408 404
816 2 2 2 6 382 399 355
817 2 2 2 6 355 429 382
818 2 2 2 6 399 431 355
819 2 2 2 6 407 429 355
820 2 2 2 6 357 397 356
821 2 2 2 6 356 368 358
822 2 2 2 6 356 397 368
823 2 2 2 6 357 378 377
824 2 2 2 6 377 397 357
825 2 2 2 6 357 379 378
826 2 2 2 6 368 369 358
827 2 2 2 6 369 370 358
828 2 2 2 6 370 405 358
829 2 2 2 6 419 426 359
830 2 2 2 6 359 427 419
831 2 2 2 6 359 426 420
832 2 2 2 6 361 424 360
833 2 2 2 6 360 425 362
834 2 2 2 6 424 425 360
835 2 2 2 6 406 442 361
836 2 2 2 6 361 442 418
837 2 2 2 6 418 443 361
838 2 2 2 6 361 443 424
839 2 2 2 6 372 408 362
840 2 2 2 6 362 423 372
841 2 2 2 6 362 425 423
842 2 2 2 6 363 430 364
843 2 2 2 6 363 432 381
844 2 2 2 6 393 412 364
845 2 2 2 6 364 430 393
846 2 2 2 6 412 414 364
847 2 2 2 6 366 367 365
848 2 2 2 6 366 421 367
849 2 2 2 6 396 422 366
850 2 2 2 6 366 422 421
851 2 2 2 6 421 428 367
852 2 2 2 6 428 436 367
853 2 2 2 6 368 387 369
854 2 2 2 6 387 417 369
855 2 2 2 6 371 408 372
856 2 2 2 6 423 427 372
857 2 2 2 6 413 414 373
858 2 2 2 6 375 403 374
859 2 2 2 6 376 403 375
860 2 2 2 6 377 378 376
861 2 2 2 6 386 397 377
862 2 2 2 6 379 410 378
863 2 2 2 6 395 410 379
864 2 2 2 6 423 425 380
865 2 2 2 6 384 407 383
866 2 2 2 6 384 429 407
867 2 2 2 6 389 391 388
868 2 2 2 6 391 411 388
869 2 2 2 6 390 392 389
870 2 2 2 6 390 393 392
871 2 2 2 6 390 412 393
872 2 2 2 6 402 412 390
873 2 2 2 6 391 415 411
874 2 2 2 6 391 435 415
875 2 2 2 6 393 394 392
876 2 2 2 6 394 437 392
877 2 2 2 6 393 430 394
878 2 2 2 6 420 422 396
879 2 2 2 6 424 443 398
880 2 2 2 6 416 418 400
881 2 2 2 6 418 442 400
882 2 2 2 6 421 422 401
883 4 2 1 1 305 12 156 102
884 4 2 1 1 156 22 11 102
885 4 2 1 1 305 156 11 102
886 4 2 1 1 156 12 23 102
887 4 2 1 1 14 25 295 99
888 4 2 1 1 14 25 101 375
889 4 2 1 1 16 27 255 106
890 4 2 1 1 107 28 17 302
891 4 2 1 1 107 16 27 302
892 4 2 1 1 27 149 107 302
893 4 2 1 1 107 149 28 302
894 4 2 1 1 236 15 26 101
895 4 2 1 1 101 236 15 375
896 4 2 1 1 21 10 387 100
897 4 2 1 1 101 25 236 375
898 4 2 1 1 106 255 16 374
899 4 2 1 1 24 13 105 386
900 4 2 1 1 106 15 26 374
901 4 2 1 1 295 145 13 99
902 4 2 1 1 25 145 295 99
903 4 2 1 1 26 255 106 374
904 4 2 1 1 24 13 145 99
905 4 2 1 1 105 12 23 242
906 4 2 1 1 242 105 12 386
907 4 2 1 1 242 24 105 386
908 4 2 1 1 387 243 21 100
909 4 2 1 1 18 29 161 108
910 4 2 1 1 108 161 18 311
911 4 2 1 1 108 17 28 311
912 4 2 1 1 128 56 287 67
913 4 2 1 1 28 161 108 311
914 4 2 1 1 11 22 243 100
915 4 2 1 1 304 93 143 150
916 4 2 1 1 82 143 93 150
917 4 2 1 1 11 243 387 100
918 4 2 1 1 50 39 301 119
919 4 2 1 1 119 301 50 153
920 4 2 1 1 151 45 34 114
921 4 2 1 1 151 34 303 114
922 4 2 1 1 426 49 38 118
923 4 2 1 1 419 48 37 113
924 4 2 1 1 110 36 47 273
925 4 2 1 1 128 287 152 67
926 4 2 1 1 51 40 401 120
927 4 2 1 1 36 110 296 273
928 4 2 1 1 123 298 69 146
929 4 2 1 1 113 419 48 147
930 4 2 1 1 118 426 49 232
931 4 2 1 1 120 401 51 254
932 4 2 1 1 39 50 401 120
933 4 2 1 1 36 47 419 113
934 4 2 1 1 301 38 49 119
935 4 2 1 1 152 56 287 128
936 4 2 1 1 111 40 308 157
937 4 2 1 1 51 40 111 157
938 4 2 1 1 50 401 120 254
939 4 2 1 1 117 35 46 266
940 4 2 1 1 47 419 113 147
941 4 2 1 1 49 301 119 153
942 4 2 1 1 426 37 48 118
943 4 2 1 1 35 117 380 266
944 4 2 1 1 110 46 35 273
945 4 2 1 1 77 154 140 88
946 4 2 1 1 48 426 118 232
947 4 2 1 1 296 110 35 273
948 4 2 1 1 298 123 214 146
949 4 2 1 1 117 45 34 266
950 4 2 1 1 79 141 437 90
951 4 2 1 1 380 117 34 266
952 4 2 1 1 128 152 55 66
953 4 2 1 1 92 136 81 239
954 4 2 1 1 155 131 71 60
955 4 2 1 1 122 73 416 62
956 4 2 1 1 151 33 44 114
957 4 2 1 1 98 18 29 309
958 4 2 1 1 29 159 98 309
959 4 2 1 1 81 142 92 249
960 4 2 1 1 151 303 33 114
961 4 2 1 1 10 21 417 104
962 4 2 1 1 69 58 123 146
963 4 2 1 1 417 21 160 104
964 4 2 1 1 112 43 32 274
965 4 2 1 1 154 78 140 89
966 4 2 1 1 58 214 123 146
967 4 2 1 1 32 43 116 276
968 4 2 1 1 44 33 398 112
969 4 2 1 1 188 196 340 193
970 4 2 1 1 326 176 250 172
971 4 2 1 1 188 340 337 193
972 4 2 1 1 328 176 326 327
973 4 2 1 1 171 323 174 173
974 4 2 1 1 172 326 173 250
975 4 2 1 1 327 330 328 176
976 4 2 1 1 326 176 172 327
977 4 2 1 1 177 174 323 173
978 4 2 1 1 326 172 173 322
979 4 2 1 1 323 171 174 321
980 4 2 1 1 326 322 327 172
981 4 2 1 1 323 171 322 173
982 4 2 1 1 395 174 321 324
983 4 2 1 1 322 326 323 173
984 4 2 1 1 321 324 174 323
985 4 2 1 1 174 395 321 240
986 4 2 1 1 373 183 176 175
987 4 2 1 1 172 322 171 173
988 4 2 1 1 323 171 321 322
989 4 2 1 1 327 373 176 172
990 4 2 1 1 373 175 176 172
991 4 2 1 1 170 322 171 172
992 4 2 1 1 240 174 171 321
993 4 2 1 1 373 327 322 172
994 4 2 1 1 373 322 170 172
995 4 2 1 1 175 373 170 172
996 4 2 1 1 319 171 320 321
997 4 2 1 1 322 170 171 320
998 4 2 1 1 322 170 320 373
999 4 2 1 1 171 320 321 322
1000 4 2 1 1 319 240 171 321
1001 4 2 1 1 14 25 375 295
1002 4 2 1 1 171 319 320 169
1003 4 2 1 1 240 319 395 321
1004 4 2 1 1 240 171 169 319
1005 4 2 1 1 170 169 171 320
1006 4 2 1 1 168 320 169 170
1007 4 2 1 1 325 174 323 177
1008 4 2 1 1 323 324 174 325
1009 4 2 1 1 323 177 173 178
1010 4 2 1 1 173 326 409 250
1011 4 2 1 1 323 326 409 173
1012 4 2 1 1 177 323 325 178
1013 4 2 1 1 329 178 250 252
1014 4 2 1 1 255 27 16 302
1015 4 2 1 1 336 337 340 193
1016 4 2 1 1 329 409 326 250
1017 4 2 1 1 27 255 149 302
1018 4 2 1 1 178 329 250 409
1019 4 2 1 1 250 409 173 178
1020 4 2 1 1 323 409 325 178
1021 4 2 1 1 198 343 378 410
1022 4 2 1 1 16 255 302 374
1023 4 2 1 1 343 403 237 376
1024 4 2 1 1 236 26 15 374
1025 4 2 1 1 374 15 236 375
1026 4 2 1 1 236 403 375 376
1027 4 2 1 1 145 13 386 295
1028 4 2 1 1 295 386 145 377
1029 4 2 1 1 343 238 237 403
1030 4 2 1 1 376 145 377 295
1031 4 2 1 1 145 375 295 376
1032 4 2 1 1 255 236 403 374
1033 4 2 1 1 375 25 145 295
1034 4 2 1 1 198 317 343 410
1035 4 2 1 1 236 403 374 375
1036 4 2 1 1 344 177 178 181
1037 4 2 1 1 255 236 238 403
1038 4 2 1 1 325 344 177 178
1039 4 2 1 1 236 255 26 374
1040 4 2 1 1 343 237 378 376
1041 4 2 1 1 145 236 375 376
1042 4 2 1 1 404 178 344 409
1043 4 2 1 1 236 25 145 375
1044 4 2 1 1 403 236 237 376
1045 4 2 1 1 403 343 238 315
1046 4 2 1 1 344 325 409 178
1047 4 2 1 1 237 378 376 377
1048 4 2 1 1 313 149 255 302
1049 4 2 1 1 13 24 145 386
1050 4 2 1 1 238 343 237 198
1051 4 2 1 1 165 317 198 167
1052 4 2 1 1 343 317 198 315
1053 4 2 1 1 237 198 343 378
1054 4 2 1 1 238 236 237 403
1055 4 2 1 1 145 376 377 237
1056 4 2 1 1 178 329 404 252
1057 4 2 1 1 317 165 198 315
1058 4 2 1 1 330 328 176 184
1059 4 2 1 1 337 188 193 184
1060 4 2 1 1 302 255 313 374
1061 4 2 1 1 163 149 255 313
1062 4 2 1 1 409 329 404 178
1063 4 2 1 1 343 198 238 315
1064 4 2 1 1 182 344 178 181
1065 4 2 1 1 236 145 237 376
1066 4 2 1 1 253 378 379 410
1067 4 2 1 1 317 253 169 319
1068 4 2 1 1 319 317 253 410
1069 4 2 1 1 253 240 319 395
1070 4 2 1 1 253 240 169 319
1071 4 2 1 1 336 337 193 184
1072 4 2 1 1 337 336 330 184
1073 4 2 1 1 395 319 253 410
1074 4 2 1 1 253 169 167 317
1075 4 2 1 1 253 379 395 410
1076 4 2 1 1 183 373 176 413
1077 4 2 1 1 255 403 313 374
1078 4 2 1 1 12 156 242 305
1079 4 2 1 1 156 12 242 23
1080 4 2 1 1 178 404 344 182
1081 4 2 1 1 165 238 315 313
1082 4 2 1 1 238 403 315 313
1083 4 2 1 1 403 255 313 238
1084 4 2 1 1 378 253 198 410
1085 4 2 1 1 12 242 386 305
1086 4 2 1 1 317 198 253 410
1087 4 2 1 1 386 218 145 377
1088 4 2 1 1 397 242 156 305
1089 4 2 1 1 182 178 404 252
1090 4 2 1 1 167 198 253 317
1091 4 2 1 1 165 238 198 315
1092 4 2 1 1 218 378 237 377
1093 4 2 1 1 176 328 326 261
1094 4 2 1 1 238 165 163 313
1095 4 2 1 1 397 386 242 305
1096 4 2 1 1 377 386 218 397
1097 4 2 1 1 377 218 378 357
1098 4 2 1 1 317 169 318 319
1099 4 2 1 1 320 168 169 318
1100 4 2 1 1 313 315 165 314
1101 4 2 1 1 318 169 320 319
1102 4 2 1 1 145 24 242 386
1103 4 2 1 1 169 317 318 167
1104 4 2 1 1 316 165 167 317
1105 4 2 1 1 169 168 167 318
1106 4 2 1 1 238 163 255 313
1107 4 2 1 1 313 165 163 314
1108 4 2 1 1 317 316 165 315
1109 4 2 1 1 176 261 326 250
1110 4 2 1 1 166 167 168 316
1111 4 2 1 1 231 378 357 379
1112 4 2 1 1 327 373 413 176
1113 4 2 1 1 218 386 145 242
1114 4 2 1 1 184 328 176 261
1115 4 2 1 1 198 237 231 378
1116 4 2 1 1 357 377 218 397
1117 4 2 1 1 378 253 379 231
1118 4 2 1 1 333 168 320 318
1119 4 2 1 1 218 237 145 377
1120 4 2 1 1 165 167 166 316
1121 4 2 1 1 386 242 218 397
1122 4 2 1 1 198 231 253 378
1123 4 2 1 1 168 333 320 256
1124 4 2 1 1 378 218 237 231
1125 4 2 1 1 250 329 261 326
1126 4 2 1 1 329 250 261 252
1127 4 2 1 1 378 218 231 357
1128 4 2 1 1 188 337 413 184
1129 4 2 1 1 330 413 337 184
1130 4 2 1 1 395 257 253 240
1131 4 2 1 1 315 316 165 314
1132 4 2 1 1 316 167 168 318
1133 4 2 1 1 167 316 317 318
1134 4 2 1 1 316 166 165 314
1135 4 2 1 1 112 398 44 274
1136 4 2 1 1 328 329 326 261
1137 4 2 1 1 257 395 253 379
1138 4 2 1 1 168 170 256 320
1139 4 2 1 1 183 188 413 184
1140 4 2 1 1 257 357 339 379
1141 4 2 1 1 257 379 332 395
1142 4 2 1 1 330 327 413 176
1143 4 2 1 1 357 257 231 379
1144 4 2 1 1 192 354 182 191
1145 4 2 1 1 176 413 330 184
1146 4 2 1 1 379 339 257 332
1147 4 2 1 1 357 218 217 397
1148 4 2 1 1 357 217 356 397
1149 4 2 1 1 328 330 200 184
1150 4 2 1 1 328 330 334 200
1151 4 2 1 1 156 217 242 397
1152 4 2 1 1 336 193 200 184
1153 4 2 1 1 200 330 336 184
1154 4 2 1 1 330 200 336 334
1155 4 2 1 1 257 253 231 379
1156 4 2 1 1 176 183 413 184
1157 4 2 1 1 217 218 242 397
1158 4 2 1 1 184 200 328 261
1159 4 2 1 1 170 256 320 373
1160 4 2 1 1 170 256 373 175
1161 4 2 1 1 207 357 356 339
1162 4 2 1 1 218 207 231 357
1163 4 2 1 1 312 313 163 314
1164 4 2 1 1 357 257 339 207
1165 4 2 1 1 231 207 257 357
1166 4 2 1 1 207 218 217 357
1167 4 2 1 1 149 313 312 302
1168 4 2 1 1 217 357 356 207
1169 4 2 1 1 313 149 312 163
1170 4 2 1 1 183 373 414 175
1171 4 2 1 1 354 192 182 408
1172 4 2 1 1 200 371 328 261
1173 4 2 1 1 371 328 334 200
1174 4 2 1 1 414 413 373 183
1175 4 2 1 1 408 404 329 252
1176 4 2 1 1 404 408 182 252
1177 4 2 1 1 182 354 408 404
1178 4 2 1 1 256 333 320 373
1179 4 2 1 1 261 371 329 252
1180 4 2 1 1 371 329 328 261
1181 4 2 1 1 373 256 414 175
1182 4 2 1 1 414 246 183 175
1183 4 2 1 1 344 182 187 181
1184 4 2 1 1 182 404 344 187
1185 4 2 1 1 371 252 408 329
1186 4 2 1 1 252 408 182 192
1187 4 2 1 1 179 338 383 331
1188 4 2 1 1 338 331 179 332
1189 4 2 1 1 332 331 179 324
1190 4 2 1 1 174 325 179 177
1191 4 2 1 1 179 335 325 331
1192 4 2 1 1 325 174 179 324
1193 4 2 1 1 324 331 179 325
1194 4 2 1 1 256 333 373 414
1195 4 2 1 1 246 414 256 175
1196 4 2 1 1 152 128 67 306
1197 4 2 1 1 261 200 371 259
1198 4 2 1 1 261 371 252 259
1199 4 2 1 1 88 154 140 299
1200 4 2 1 1 252 371 408 259
1201 4 2 1 1 397 244 217 356
1202 4 2 1 1 404 346 344 187
1203 4 2 1 1 397 156 244 305
1204 4 2 1 1 180 339 338 332
1205 4 2 1 1 395 180 174 324
1206 4 2 1 1 395 332 180 324
1207 4 2 1 1 240 180 174 395
1208 4 2 1 1 259 408 252 192
1209 4 2 1 1 335 179 325 235
1210 4 2 1 1 156 397 244 217
1211 4 2 1 1 332 180 257 395
1212 4 2 1 1 180 240 257 395
1213 4 2 1 1 311 149 312 302
1214 4 2 1 1 354 182 191 187
1215 4 2 1 1 339 180 257 332
1216 4 2 1 1 354 404 182 187
1217 4 2 1 1 356 189 207 339
1218 4 2 1 1 177 325 179 235
1219 4 2 1 1 193 350 336 200
1220 4 2 1 1 350 334 336 200
1221 4 2 1 1 189 257 207 339
1222 4 2 1 1 196 223 366 241
1223 4 2 1 1 196 366 340 241
1224 4 2 1 1 207 217 205 356
1225 4 2 1 1 338 179 180 332
1226 4 2 1 1 332 179 180 324
1227 4 2 1 1 174 180 179 324
1228 4 2 1 1 71 300 131 155
1229 4 2 1 1 32 398 112 274
1230 4 2 1 1 408 203 259 372
1231 4 2 1 1 177 344 235 181
1232 4 2 1 1 344 177 235 325
1233 4 2 1 1 203 408 259 192
1234 4 2 1 1 311 17 28 302
1235 4 2 1 1 28 149 311 302
1236 4 2 1 1 168 316 185 166
1237 4 2 1 1 404 354 346 187
1238 4 2 1 1 316 168 185 318
1239 4 2 1 1 244 156 243 305
1240 4 2 1 1 195 346 354 187
1241 4 2 1 1 372 408 371 259
1242 4 2 1 1 344 187 199 181
1243 4 2 1 1 244 205 217 356
1244 4 2 1 1 368 244 397 356
1245 4 2 1 1 339 180 338 189
1246 4 2 1 1 354 191 195 187
1247 4 2 1 1 207 205 189 356
1248 4 2 1 1 338 179 383 186
1249 4 2 1 1 243 22 11 156
1250 4 2 1 1 11 243 156 305
1251 4 2 1 1 180 257 189 339
1252 4 2 1 1 368 397 244 305
1253 4 2 1 1 187 344 199 346
1254 4 2 1 1 351 200 371 334
1255 4 2 1 1 325 344 335 235
1256 4 2 1 1 28 149 161 311
1257 4 2 1 1 305 243 368 387
1258 4 2 1 1 368 244 243 305
1259 4 2 1 1 185 402 316 318
1260 4 2 1 1 335 194 179 235
1261 4 2 1 1 199 335 344 235
1262 4 2 1 1 180 186 179 338
1263 4 2 1 1 11 243 305 387
1264 4 2 1 1 366 396 340 241
1265 4 2 1 1 94 304 143 83
1266 4 2 1 1 372 362 408 203
1267 4 2 1 1 350 351 334 200
1268 4 2 1 1 200 193 350 202
1269 4 2 1 1 333 185 168 318
1270 4 2 1 1 168 256 185 333
1271 4 2 1 1 189 356 341 339
1272 4 2 1 1 344 181 199 235
1273 4 2 1 1 338 189 341 339
1274 4 2 1 1 201 354 192 191
1275 4 2 1 1 201 354 408 192
1276 4 2 1 1 185 402 333 412
1277 4 2 1 1 225 354 201 191
1278 4 2 1 1 180 189 186 338
1279 4 2 1 1 203 362 408 201
1280 4 2 1 1 128 152 66 306
1281 4 2 1 1 193 350 396 336
1282 4 2 1 1 200 350 351 260
1283 4 2 1 1 341 186 189 338
1284 4 2 1 1 186 349 383 338
1285 4 2 1 1 408 203 201 192
1286 4 2 1 1 356 189 341 205
1287 4 2 1 1 244 356 206 205
1288 4 2 1 1 200 351 371 260
1289 4 2 1 1 89 140 154 299
1290 4 2 1 1 186 194 179 383
1291 4 2 1 1 356 244 206 368
1292 4 2 1 1 362 354 408 201
1293 4 2 1 1 396 336 340 193
1294 4 2 1 1 235 199 335 262
1295 4 2 1 1 186 341 349 338
1296 4 2 1 1 333 402 185 318
1297 4 2 1 1 260 371 200 259
1298 4 2 1 1 50 401 254 153
1299 4 2 1 1 401 50 301 153
1300 4 2 1 1 199 187 346 263
1301 4 2 1 1 260 372 371 259
1302 4 2 1 1 350 193 396 202
1303 4 2 1 1 260 200 350 202
1304 4 2 1 1 372 260 203 259
1305 4 2 1 1 351 372 371 260
1306 4 2 1 1 349 212 186 383
1307 4 2 1 1 84 134 95 277
1308 4 2 1 1 39 50 301 401
1309 4 2 1 1 419 47 36 273
1310 4 2 1 1 206 356 341 205
1311 4 2 1 1 146 59 70 124
1312 4 2 1 1 191 225 354 195
1313 4 2 1 1 426 38 49 301
1314 4 2 1 1 301 49 426 232
1315 4 2 1 1 380 296 35 273
1316 4 2 1 1 47 419 147 273
1317 4 2 1 1 48 37 426 419
1318 4 2 1 1 419 426 48 147
1319 4 2 1 1 189 197 186 341
1320 4 2 1 1 335 383 194 262
1321 4 2 1 1 308 40 401 157
1322 4 2 1 1 163 162 149 312
1323 4 2 1 1 40 51 401 157
1324 4 2 1 1 36 296 419 273
1325 4 2 1 1 229 264 431 263
1326 4 2 1 1 356 368 206 358
1327 4 2 1 1 266 380 35 273
1328 4 2 1 1 202 193 396 241
1329 4 2 1 1 311 149 162 312
1330 4 2 1 1 212 194 186 383
1331 4 2 1 1 233 79 141 437
1332 4 2 1 1 49 301 153 232
1333 4 2 1 1 341 186 349 197
1334 4 2 1 1 401 51 254 157
1335 4 2 1 1 197 189 205 341
1336 4 2 1 1 149 162 161 311
1337 4 2 1 1 34 303 266 151
1338 4 2 1 1 387 21 160 417
1339 4 2 1 1 34 303 380 266
1340 4 2 1 1 206 356 358 341
1341 4 2 1 1 10 21 387 417
1342 4 2 1 1 266 45 34 151
1343 4 2 1 1 232 48 426 147
1344 4 2 1 1 346 195 354 353
1345 4 2 1 1 381 92 142 249
1346 4 2 1 1 266 35 46 273
1347 4 2 1 1 335 194 235 262
1348 4 2 1 1 29 18 161 309
1349 4 2 1 1 243 21 160 387
1350 4 2 1 1 311 161 18 309
1351 4 2 1 1 206 197 205 341
1352 4 2 1 1 164 163 165 314
1353 4 2 1 1 164 165 166 314
1354 4 2 1 1 312 163 164 314
1355 4 2 1 1 212 186 197 349
1356 4 2 1 1 155 72 131 61
1357 4 2 1 1 350 260 269 351
1358 4 2 1 1 158 122 416 62
1359 4 2 1 1 425 201 275 225
1360 4 2 1 1 312 164 388 314
1361 4 2 1 1 362 360 354 201
1362 4 2 1 1 126 54 216 65
1363 4 2 1 1 161 159 29 309
1364 4 2 1 1 423 372 267 203
1365 4 2 1 1 201 360 354 225
1366 4 2 1 1 260 350 269 202
1367 4 2 1 1 84 436 144 286
1368 4 2 1 1 423 372 427 267
1369 4 2 1 1 267 372 260 203
1370 4 2 1 1 304 143 83 150
1371 4 2 1 1 372 267 260 427
1372 4 2 1 1 351 427 372 260
1373 4 2 1 1 427 260 269 267
1374 4 2 1 1 372 423 362 203
1375 4 2 1 1 269 350 420 202
1376 4 2 1 1 195 225 353 226
1377 4 2 1 1 243 368 215 244
1378 4 2 1 1 225 353 354 195
1379 4 2 1 1 350 359 351 269
1380 4 2 1 1 223 366 365 196
1381 4 2 1 1 340 365 366 196
1382 4 2 1 1 266 303 380 275
1383 4 2 1 1 427 419 296 267
1384 4 2 1 1 316 251 166 314
1385 4 2 1 1 420 269 202 271
1386 4 2 1 1 202 420 396 350
1387 4 2 1 1 359 350 420 269
1388 4 2 1 1 271 420 422 241
1389 4 2 1 1 208 425 201 275
1390 4 2 1 1 362 425 201 208
1391 4 2 1 1 273 380 296 208
1392 4 2 1 1 359 269 232 147
1393 4 2 1 1 87 138 76 415
1394 4 2 1 1 301 420 153 232
1395 4 2 1 1 420 359 269 232
1396 4 2 1 1 209 212 197 349
1397 4 2 1 1 144 436 94 286
1398 4 2 1 1 203 267 423 208
1399 4 2 1 1 80 136 91 239
1400 4 2 1 1 341 206 405 358
1401 4 2 1 1 206 341 405 197
1402 4 2 1 1 347 340 337 188
1403 4 2 1 1 195 353 406 226
1404 4 2 1 1 340 219 196 188
1405 4 2 1 1 197 405 349 341
1406 4 2 1 1 425 362 423 208
1407 4 2 1 1 396 422 420 241
1408 4 2 1 1 420 301 426 232
1409 4 2 1 1 303 425 380 275
1410 4 2 1 1 123 214 57 68
1411 4 2 1 1 185 279 402 412
1412 4 2 1 1 420 269 271 232
1413 4 2 1 1 359 420 426 232
1414 4 2 1 1 267 296 423 208
1415 4 2 1 1 164 162 163 312
1416 4 2 1 1 215 206 244 368
1417 4 2 1 1 95 436 144 84
1418 4 2 1 1 366 422 396 241
1419 4 2 1 1 427 296 423 267
1420 4 2 1 1 82 381 142 249
1421 4 2 1 1 275 266 303 151
1422 4 2 1 1 136 92 297 239
1423 4 2 1 1 116 307 32 276
1424 4 2 1 1 381 82 142 93
1425 4 2 1 1 212 349 384 383
1426 4 2 1 1 366 223 270 241
1427 4 2 1 1 254 401 422 153
1428 4 2 1 1 420 271 153 232
1429 4 2 1 1 273 266 380 208
1430 4 2 1 1 162 164 388 312
1431 4 2 1 1 208 380 425 275
1432 4 2 1 1 32 43 276 274
1433 4 2 1 1 212 213 194 383
1434 4 2 1 1 270 271 422 241
1435 4 2 1 1 148 133 91 80
1436 4 2 1 1 423 296 380 208
1437 4 2 1 1 225 275 424 268
1438 4 2 1 1 264 355 431 263
1439 4 2 1 1 301 422 401 153
1440 4 2 1 1 348 414 246 183
1441 4 2 1 1 414 348 413 183
1442 4 2 1 1 138 288 265 438
1443 4 2 1 1 422 420 271 153
1444 4 2 1 1 413 188 348 337
1445 4 2 1 1 188 413 348 183
1446 4 2 1 1 223 272 366 270
1447 4 2 1 1 311 162 411 312
1448 4 2 1 1 428 95 134 277
1449 4 2 1 1 267 273 296 208
1450 4 2 1 1 333 247 185 412
1451 4 2 1 1 316 342 251 314
1452 4 2 1 1 368 215 206 358
1453 4 2 1 1 225 360 353 226
1454 4 2 1 1 256 247 185 333
1455 4 2 1 1 414 256 247 246
1456 4 2 1 1 422 366 270 241
1457 4 2 1 1 256 414 247 333
1458 4 2 1 1 383 335 407 262
1459 4 2 1 1 227 195 406 226
1460 4 2 1 1 308 111 157 291
1461 4 2 1 1 201 425 360 225
1462 4 2 1 1 362 425 360 201
1463 4 2 1 1 388 411 162 312
1464 4 2 1 1 425 423 380 208
1465 4 2 1 1 285 416 73 62
1466 4 2 1 1 65 284 434 125
1467 4 2 1 1 268 303 275 424
1468 4 2 1 1 122 416 439 290
1469 4 2 1 1 303 268 275 151
1470 4 2 1 1 160 243 387 369
1471 4 2 1 1 285 73 132 62
1472 4 2 1 1 154 77 245 88
1473 4 2 1 1 222 223 365 196
1474 4 2 1 1 159 98 309 438
1475 4 2 1 1 344 345 335 199
1476 4 2 1 1 54 284 65 125
1477 4 2 1 1 345 344 346 199
1478 4 2 1 1 405 209 197 349
1479 4 2 1 1 412 333 247 414
1480 4 2 1 1 398 33 44 151
1481 4 2 1 1 137 76 245 435
1482 4 2 1 1 420 422 301 153
1483 4 2 1 1 199 345 335 262
1484 4 2 1 1 428 308 421 157
1485 4 2 1 1 422 271 270 153
1486 4 2 1 1 402 342 251 316
1487 4 2 1 1 199 346 345 263
1488 4 2 1 1 279 390 402 412
1489 4 2 1 1 277 224 436 286
1490 4 2 1 1 360 353 354 225
1491 4 2 1 1 365 223 367 366
1492 4 2 1 1 160 387 417 369
1493 4 2 1 1 400 73 132 285
1494 4 2 1 1 208 266 380 275
1495 4 2 1 1 369 417 160 310
1496 4 2 1 1 422 366 421 270
1497 4 2 1 1 346 353 352 195
1498 4 2 1 1 59 282 70 130
1499 4 2 1 1 365 304 367 222
1500 4 2 1 1 79 133 90 394
1501 4 2 1 1 213 212 384 383
1502 4 2 1 1 270 254 422 153
1503 4 2 1 1 151 44 398 274
1504 4 2 1 1 164 166 251 314
1505 4 2 1 1 406 352 195 263
1506 4 2 1 1 57 287 129 433
1507 4 2 1 1 111 308 441 291
1508 4 2 1 1 222 432 150 283
1509 4 2 1 1 76 137 87 435
1510 4 2 1 1 436 224 304 286
1511 4 2 1 1 220 381 432 283
1512 4 2 1 1 150 432 381 283
1513 4 2 1 1 263 195 406 227
1514 4 2 1 1 98 159 288 438
1515 4 2 1 1 33 398 303 151
1516 4 2 1 1 340 219 365 196
1517 4 2 1 1 134 441 428 291
1518 4 2 1 1 73 400 416 285
1519 4 2 1 1 220 432 219 283
1520 4 2 1 1 289 126 310 440
1521 4 2 1 1 206 209 197 405
1522 4 2 1 1 431 355 264 229
1523 4 2 1 1 146 70 382 124
1524 4 2 1 1 286 94 144 83
1525 4 2 1 1 304 94 436 286
1526 4 2 1 1 340 347 219 188
1527 4 2 1 1 424 303 398 268
1528 4 2 1 1 268 303 398 151
1529 4 2 1 1 361 406 353 226
1530 4 2 1 1 211 209 152 306
1531 4 2 1 1 424 361 360 226
1532 4 2 1 1 224 367 304 222
1533 4 2 1 1 425 303 424 275
1534 4 2 1 1 300 72 131 155
1535 4 2 1 1 421 401 422 254
1536 4 2 1 1 212 209 385 349
1537 4 2 1 1 92 81 249 239
1538 4 2 1 1 279 390 342 402
1539 4 2 1 1 311 258 161 309
1540 4 2 1 1 162 204 411 388
1541 4 2 1 1 276 116 439 290
1542 4 2 1 1 421 367 428 272
1543 4 2 1 1 348 219 363 347
1544 4 2 1 1 68 57 129 433
1545 4 2 1 1 367 272 224 277
1546 4 2 1 1 272 367 428 277
1547 4 2 1 1 132 72 400 285
1548 4 2 1 1 276 307 32 274
1549 4 2 1 1 150 224 304 222
1550 4 2 1 1 310 126 216 65
1551 4 2 1 1 436 84 277 286
1552 4 2 1 1 381 82 150 249
1553 4 2 1 1 93 304 381 150
1554 4 2 1 1 82 93 381 150
1555 4 2 1 1 366 367 272 223
1556 4 2 1 1 262 199 345 264
1557 4 2 1 1 358 368 215 369
1558 4 2 1 1 223 365 367 222
1559 4 2 1 1 246 348 364 414
1560 4 2 1 1 364 414 247 246
1561 4 2 1 1 272 421 366 270
1562 4 2 1 1 360 361 353 226
1563 4 2 1 1 164 251 204 388
1564 4 2 1 1 265 159 258 309
1565 4 2 1 1 251 279 342 402
1566 4 2 1 1 265 76 138 415
1567 4 2 1 1 398 268 151 274
1568 4 2 1 1 159 161 258 309
1569 4 2 1 1 279 251 185 402
1570 4 2 1 1 414 247 412 364
1571 4 2 1 1 434 55 152 66
1572 4 2 1 1 347 337 348 188
1573 4 2 1 1 132 61 72 285
1574 4 2 1 1 209 210 306 405
1575 4 2 1 1 265 138 438 415
1576 4 2 1 1 204 162 164 388
1577 4 2 1 1 111 41 52 291
1578 4 2 1 1 306 211 209 385
1579 4 2 1 1 279 185 247 412
1580 4 2 1 1 355 352 431 263
1581 4 2 1 1 152 284 55 434
1582 4 2 1 1 243 160 215 369
1583 4 2 1 1 385 209 306 405
1584 4 2 1 1 428 272 157 421
1585 4 2 1 1 288 19 30 98
1586 4 2 1 1 289 20 9 104
1587 4 2 1 1 214 123 298 68
1588 4 2 1 1 406 352 353 195
1589 4 2 1 1 219 222 365 196
1590 4 2 1 1 367 224 223 222
1591 4 2 1 1 210 284 152 434
1592 4 2 1 1 84 95 436 277
1593 4 2 1 1 264 199 345 263
1594 4 2 1 1 133 79 148 394
1595 4 2 1 1 216 215 160 369
1596 4 2 1 1 272 428 157 277
1597 4 2 1 1 352 345 346 263
1598 4 2 1 1 434 284 55 125
1599 4 2 1 1 398 32 307 274
1600 4 2 1 1 364 220 190 221
1601 4 2 1 1 220 430 280 221
1602 4 2 1 1 209 210 152 306
1603 4 2 1 1 291 428 134 277
1604 4 2 1 1 292 279 390 342
1605 4 2 1 1 416 122 158 290
1606 4 2 1 1 304 94 286 83
1607 4 2 1 1 219 340 365 347
1608 4 2 1 1 220 364 190 363
1609 4 2 1 1 363 220 219 190
1610 4 2 1 1 219 348 363 190
1611 4 2 1 1 370 215 216 369
1612 4 2 1 1 125 55 434 66
1613 4 2 1 1 405 385 209 349
1614 4 2 1 1 213 429 281 262
1615 4 2 1 1 111 441 41 291
1616 4 2 1 1 348 364 363 190
1617 4 2 1 1 133 148 91 394
1618 4 2 1 1 348 246 190 183
1619 4 2 1 1 304 365 432 222
1620 4 2 1 1 72 300 400 285
1621 4 2 1 1 358 215 206 370
1622 4 2 1 1 383 384 213 407
1623 4 2 1 1 281 429 214 146
1624 4 2 1 1 369 160 216 310
1625 4 2 1 1 190 188 348 183
1626 4 2 1 1 285 158 416 62
1627 4 2 1 1 213 211 214 384
1628 4 2 1 1 407 335 345 262
1629 4 2 1 1 116 42 439 290
1630 4 2 1 1 74 290 122 439
1631 4 2 1 1 349 385 212 384
1632 4 2 1 1 282 399 70 130
1633 4 2 1 1 254 272 421 157
1634 4 2 1 1 289 9 440 104
1635 4 2 1 1 288 19 98 438
1636 4 2 1 1 162 204 258 411
1637 4 2 1 1 126 216 289 310
1638 4 2 1 1 290 74 122 63
1639 4 2 1 1 209 206 210 405
1640 4 2 1 1 224 436 367 277
1641 4 2 1 1 436 428 367 277
1642 4 2 1 1 363 432 347 219
1643 4 2 1 1 211 152 287 306
1644 4 2 1 1 211 212 209 385
1645 4 2 1 1 227 431 229 155
1646 4 2 1 1 154 78 89 437
1647 4 2 1 1 306 210 370 405
1648 4 2 1 1 439 307 116 276
1649 4 2 1 1 212 211 213 384
1650 4 2 1 1 136 297 91 239
1651 4 2 1 1 385 214 211 384
1652 4 2 1 1 224 272 367 223
1653 4 2 1 1 224 436 304 367
1654 4 2 1 1 67 433 287 306
1655 4 2 1 1 262 345 407 264
1656 4 2 1 1 366 367 421 272
1657 4 2 1 1 219 347 348 188
1658 4 2 1 1 67 287 152 306
1659 4 2 1 1 220 249 381 283
1660 4 2 1 1 283 222 432 219
1661 4 2 1 1 249 150 381 283
1662 4 2 1 1 150 304 432 222
1663 4 2 1 1 432 150 381 304
1664 4 2 1 1 291 134 441 85
1665 4 2 1 1 66 152 434 306
1666 4 2 1 1 297 249 220 239
1667 4 2 1 1 76 265 245 435
1668 4 2 1 1 369 216 370 310
1669 4 2 1 1 309 258 265 415
1670 4 2 1 1 61 155 72 285
1671 4 2 1 1 309 411 258 415
1672 4 2 1 1 71 155 60 282
1673 4 2 1 1 286 224 304 150
1674 4 2 1 1 210 215 216 370
1675 4 2 1 1 429 213 407 262
1676 4 2 1 1 263 406 431 227
1677 4 2 1 1 434 152 210 306
1678 4 2 1 1 306 433 287 385
1679 4 2 1 1 352 406 431 263
1680 4 2 1 1 311 411 258 309
1681 4 2 1 1 416 439 74 122
1682 4 2 1 1 83 286 304 150
1683 4 2 1 1 90 437 79 394
1684 4 2 1 1 382 69 298 146
1685 4 2 1 1 278 154 245 299
1686 4 2 1 1 96 441 134 85
1687 4 2 1 1 384 214 213 429
1688 4 2 1 1 204 294 411 388
1689 4 2 1 1 59 70 282 146
1690 4 2 1 1 71 300 155 282
1691 4 2 1 1 249 297 220 381
1692 4 2 1 1 306 287 211 385
1693 4 2 1 1 220 364 430 221
1694 4 2 1 1 432 363 381 220
1695 4 2 1 1 437 89 154 299
1696 4 2 1 1 430 363 364 220
1697 4 2 1 1 54 284 216 65
1698 4 2 1 1 398 307 443 274
1699 4 2 1 1 432 220 219 363
1700 4 2 1 1 300 71 399 282
1701 4 2 1 1 95 428 436 277
1702 4 2 1 1 211 212 385 384
1703 4 2 1 1 246 221 364 190
1704 4 2 1 1 129 287 56 67
1705 4 2 1 1 268 398 443 274
1706 4 2 1 1 370 358 215 369
1707 4 2 1 1 173 409 323 178
1708 4 2 1 1 221 364 247 246
1709 4 2 1 1 385 298 214 384
1710 4 2 1 1 248 279 247 393
1711 4 2 1 1 390 389 292 342
1712 4 2 1 1 391 278 245 299
1713 4 2 1 1 298 429 382 146
1714 4 2 1 1 348 246 364 190
1715 4 2 1 1 42 116 276 290
1716 4 2 1 1 226 268 443 230
1717 4 2 1 1 300 431 227 155
1718 4 2 1 1 279 292 251 342
1719 4 2 1 1 157 111 52 291
1720 4 2 1 1 308 441 41 111
1721 4 2 1 1 300 72 155 285
1722 4 2 1 1 429 298 214 146
1723 4 2 1 1 80 91 148 239
1724 4 2 1 1 363 297 381 220
1725 4 2 1 1 76 87 415 435
1726 4 2 1 1 348 219 188 190
1727 4 2 1 1 294 258 411 415
1728 4 2 1 1 300 431 406 227
1729 4 2 1 1 35 36 110 296
1730 4 2 1 1 34 33 303 114
1731 4 2 1 1 34 35 117 380
1732 4 2 1 1 387 10 11 100
1733 4 2 1 1 11 12 305 102
1734 4 2 1 1 23 22 156 102
1735 4 2 1 1 295 13 14 99
1736 4 2 1 1 105 13 12 386
1737 4 2 1 1 28 27 149 107
1738 4 2 1 1 15 14 101 375
1739 4 2 1 1 17 16 107 302
1740 4 2 1 1 236 26 25 101
1741 4 2 1 1 27 26 255 106
1742 4 2 1 1 106 16 15 374
1743 4 2 1 1 145 25 24 99
1744 4 2 1 1 23 24 105 242
1745 4 2 1 1 119 50 49 153
1746 4 2 1 1 389 388 292 342
1747 4 2 1 1 439 31 42 116
1748 4 2 1 1 282 60 71 130
1749 4 2 1 1 429 214 213 281
1750 4 2 1 1 287 129 433 67
1751 4 2 1 1 440 9 417 104
1752 4 2 1 1 159 288 30 98
1753 4 2 1 1 437 154 233 299
1754 4 2 1 1 215 210 206 370
1755 4 2 1 1 108 18 17 311
1756 4 2 1 1 29 28 161 108
1757 4 2 1 1 141 78 233 437
1758 4 2 1 1 249 297 92 239
1759 4 2 1 1 243 22 21 100
1760 4 2 1 1 239 297 280 220
1761 4 2 1 1 361 418 226 230
1762 4 2 1 1 309 98 19 438
1763 4 2 1 1 20 289 160 104
1764 4 2 1 1 388 204 278 389
1765 4 2 1 1 78 141 89 437
1766 4 2 1 1 120 51 50 254
1767 4 2 1 1 292 278 204 389
1768 4 2 1 1 258 294 265 415
1769 4 2 1 1 299 278 234 389
1770 4 2 1 1 210 370 434 306
1771 4 2 1 1 226 418 361 228
1772 4 2 1 1 282 71 399 130
1773 4 2 1 1 146 382 69 124
1774 4 2 1 1 154 278 234 299
1775 4 2 1 1 431 229 263 227
1776 4 2 1 1 391 411 294 388
1777 4 2 1 1 226 442 227 228
1778 4 2 1 1 92 381 297 249
1779 4 2 1 1 300 406 442 227
1780 4 2 1 1 146 69 58 124
1781 4 2 1 1 118 49 48 232
1782 4 2 1 1 227 442 300 155
1783 4 2 1 1 222 365 432 219
1784 4 2 1 1 53 440 126 289
1785 4 2 1 1 288 138 86 438
1786 4 2 1 1 159 30 29 98
1787 4 2 1 1 384 298 214 429
1788 4 2 1 1 155 227 442 228
1789 4 2 1 1 274 307 443 230
1790 4 2 1 1 424 398 443 268
1791 4 2 1 1 19 18 98 309
1792 4 2 1 1 21 20 160 104
1793 4 2 1 1 347 432 365 219
1794 4 2 1 1 228 226 418 230
1795 4 2 1 1 388 278 391 389
1796 4 2 1 1 233 437 299 392
1797 4 2 1 1 68 214 57 433
1798 4 2 1 1 310 417 160 440
1799 4 2 1 1 265 76 415 435
1800 4 2 1 1 216 370 310 434
1801 4 2 1 1 407 384 213 429
1802 4 2 1 1 39 38 301 119
1803 4 2 1 1 233 79 437 394
1804 4 2 1 1 113 48 47 147
1805 4 2 1 1 157 428 308 291
1806 4 2 1 1 287 57 214 433
1807 4 2 1 1 430 280 148 297
1808 4 2 1 1 418 416 400 158
1809 4 2 1 1 430 364 393 221
1810 4 2 1 1 78 154 233 437
1811 4 2 1 1 37 36 419 113
1812 4 2 1 1 265 76 75 138
1813 4 2 1 1 401 40 39 120
1814 4 2 1 1 309 265 159 438
1815 4 2 1 1 32 31 307 116
1816 4 2 1 1 300 72 71 131
1817 4 2 1 1 304 93 94 143
1818 4 2 1 1 82 83 143 150
1819 4 2 1 1 55 56 152 128
1820 4 2 1 1 52 51 111 157
1821 4 2 1 1 38 37 426 118
1822 4 2 1 1 308 41 40 111
1823 4 2 1 1 89 88 140 299
1824 4 2 1 1 391 204 278 388
1825 4 2 1 1 110 47 46 273
1826 4 2 1 1 228 418 400 158
1827 4 2 1 1 440 53 126 64
1828 4 2 1 1 158 416 400 285
1829 4 2 1 1 310 160 289 440
1830 4 2 1 1 66 67 128 306
1831 4 2 1 1 74 73 416 122
1832 4 2 1 1 417 9 10 104
1833 4 2 1 1 393 247 248 221
1834 4 2 1 1 148 79 133 80
1835 4 2 1 1 123 298 68 69
1836 4 2 1 1 428 441 308 291
1837 4 2 1 1 415 391 294 435
1838 4 2 1 1 57 58 214 123
1839 4 2 1 1 86 138 87 415
1840 4 2 1 1 131 155 61 60
1841 4 2 1 1 53 54 216 126
1842 4 2 1 1 117 46 45 266
1843 4 2 1 1 355 407 345 264
1844 4 2 1 1 299 154 233 392
1845 4 2 1 1 151 44 45 114
1846 4 2 1 1 75 288 138 86
1847 4 2 1 1 33 32 398 112
1848 4 2 1 1 136 80 81 239
1849 4 2 1 1 204 294 258 411
1850 4 2 1 1 62 158 122 63
1851 4 2 1 1 418 361 443 230
1852 4 2 1 1 90 133 91 394
1853 4 2 1 1 84 85 134 277
1854 4 2 1 1 428 95 96 134
1855 4 2 1 1 76 245 77 137
1856 4 2 1 1 65 310 126 64
1857 4 2 1 1 233 79 78 141
1858 4 2 1 1 435 391 245 299
1859 4 2 1 1 274 443 268 230
1860 4 2 1 1 294 204 391 388
1861 4 2 1 1 294 411 391 415
1862 4 2 1 1 400 228 158 285
1863 4 2 1 1 116 43 42 276
1864 4 2 1 1 112 44 43 274
1865 4 2 1 1 154 78 77 140
1866 4 2 1 1 85 291 134 277
1867 4 2 1 1 428 96 441 134
1868 4 2 1 1 440 1 97 121
1869 4 2 1 1 2 289 97 121
1870 4 2 1 1 109 5 439 127
1871 4 2 1 1 103 135 3 438
1872 4 2 1 1 4 288 135 103
1873 4 2 1 1 265 288 159 438
1874 4 2 1 1 127 109 6 290
1875 4 2 1 1 393 248 394 430
1876 4 2 1 1 433 298 214 385
1877 4 2 1 1 418 442 361 228
1878 4 2 1 1 391 245 294 435
1879 4 2 1 1 292 279 234 390
1880 4 2 1 1 139 7 441 115
1881 4 2 1 1 115 139 8 291
1882 4 2 1 1 400 73 72 132
1883 4 2 1 1 388 292 204 389
1884 4 2 1 1 389 292 234 390
1885 4 2 1 1 115 52 41 291
1886 4 2 1 1 291 157 428 277
1887 4 2 1 1 297 148 91 239
1888 4 2 1 1 30 19 288 103
1889 4 2 1 1 289 9 20 97
1890 4 2 1 1 274 276 307 230
1891 4 2 1 1 290 122 158 63
1892 4 2 1 1 154 234 233 392
1893 4 2 1 1 68 298 214 433
1894 4 2 1 1 394 233 248 392
1895 4 2 1 1 265 75 288 138
1896 4 2 1 1 234 154 299 392
1897 4 2 1 1 289 216 160 310
1898 4 2 1 1 226 443 361 230
1899 4 2 1 1 280 148 297 239
1900 4 2 1 1 41 441 115 291
1901 4 2 1 1 71 70 399 130
1902 4 2 1 1 31 439 307 116
1903 4 2 1 1 226 361 442 228
1904 4 2 1 1 216 289 53 126
1905 4 2 1 1 138 86 438 415
1906 4 2 1 1 439 42 109 290
1907 4 2 1 1 127 74 439 290
1908 4 2 1 1 97 289 9 440
1909 4 2 1 1 440 126 310 64
1910 4 2 1 1 103 19 288 438
1911 4 2 1 1 438 309 265 415
1912 4 2 1 1 294 204 278 391
1913 4 2 1 1 288 135 103 438
1914 4 2 1 1 440 97 289 121
1915 4 2 1 1 439 109 127 290
1916 4 2 1 1 441 139 115 291
1917 4 2 1 1 290 127 74 63
1918 4 2 1 1 355 431 399 293
1919 4 2 1 1 393 394 248 392
1920 4 2 1 1 81 82 142 249
1921 4 2 1 1 381 92 93 142
1922 4 2 1 1 79 233 148 394
1923 4 2 1 1 299 391 278 389
1924 4 2 1 1 431 355 229 293
1925 4 2 1 1 291 441 139 85
1926 4 2 1 1 389 234 299 392
1927 4 2 1 1 148 91 394 297
1928 4 2 1 1 430 148 394 297
1929 4 2 1 1 7 41 441 115
1930 4 2 1 1 8 52 115 291
1931 4 2 1 1 42 6 109 290
1932 4 2 1 1 97 9 1 440
1933 4 2 1 1 5 74 439 127
1934 4 2 1 1 288 4 30 103
1935 4 2 1 1 103 3 19 438
1936 4 2 1 1 289 20 2 97
1937 4 2 1 1 441 96 139 85
1938 4 2 1 1 230 418 228 158
1939 4 2 1 1 293 282 399 146
1940 4 2 1 1 42 439 109 31
1941 4 2 1 1 6 127 290 63
1942 4 2 1 1 441 96 7 139
1943 4 2 1 1 291 139 8 85
1944 4 2 1 1 248 148 233 394
1945 4 2 1 1 70 69 382 124
1946 4 2 1 1 440 289 53 121
1947 4 2 1 1 86 135 288 438
1948 4 2 1 1 399 382 293 146
1949 4 2 1 1 1 440 64 121
1950 4 2 1 1 399 382 355 293
1951 4 2 1 1 288 75 4 135
1952 4 2 1 1 234 248 233 392
1953 4 2 1 1 64 440 53 121
1954 4 2 1 1 289 2 53 121
1955 4 2 1 1 3 135 86 438
1956 4 2 1 1 31 5 439 109
1957 4 2 1 1 141 89 437 90
1958 4 2 1 1 392 389 234 390
1959 4 2 1 1 288 75 135 86
1960 4 2 1 1 418 443 307 230
1961 4 2 1 1 144 84 286 83
1962 4 2 1 1 95 436 94 144
1963 4 2 1 1 132 61 285 62
1964 4 2 1 1 57 287 56 129
1965 4 2 1 1 92 297 91 136
1966 4 2 1 1 435 137 87 88
1967 4 2 1 1 434 65 125 66
1968 4 2 1 1 284 54 55 125
1969 4 2 1 1 58 59 146 124
1970 4 2 1 1 278 245 294 391
1971 4 2 1 1 355 264 229 293
1972 4 2 1 1 394 437 233 392
1973 4 2 1 1 60 282 59 130
1974 4 2 1 1 433 129 68 67
1975 4 2 1 1 442 418 400 228
1976 4 2 1 1 292 234 278 389
1977 4 2 1 1 139 8 7 115
1978 4 2 1 1 109 6 5 127
1979 4 2 1 1 135 3 4 103
1980 4 2 1 1 97 1 2 121
1981 4 2 1 1 340 241 193 196
1982 4 2 1 1 193 241 340 396
1983 4 2 1 1 245 88 137 435
1984 4 2 1 1 137 88 245 77
1985 4 2 1 1 258 311 162 411
1986 4 2 1 1 162 311 258 161
1987 4 2 1 1 279 412 393 390
1988 4 2 1 1 393 412 279 247
1989 4 2 1 1 351 269 427 260
1990 4 2 1 1 427 269 351 359
1991 4 2 1 1 383 179 335 194
1992 4 2 1 1 335 179 383 331
1993 4 2 1 1 225 425 424 275
1994 4 2 1 1 225 424 425 360
1995 4 2 1 1 355 263 345 352
1996 4 2 1 1 345 263 355 264
1997 4 2 1 1 245 299 88 435
1998 4 2 1 1 88 299 245 154
1999 4 2 1 1 241 420 202 271
2000 4 2 1 1 241 202 420 396
2001 4 2 1 1 419 273 267 147
2002 4 2 1 1 267 273 419 296
2003 4 2 1 1 147 426 359 419
2004 4 2 1 1 147 359 426 232
2005 4 2 1 1 424 225 226 360
2006 4 2 1 1 424 226 225 268
2007 4 2 1 1 185 316 251 166
2008 4 2 1 1 251 316 185 402
2009 4 2 1 1 157 401 421 254
2010 4 2 1 1 157 421 401 308
2011 4 2 1 1 424 226 443 361
2012 4 2 1 1 443 226 424 268
2013 4 2 1 1 314 251 388 342
2014 4 2 1 1 314 388 251 164
2015 4 2 1 1 243 369 368 387
2016 4 2 1 1 368 369 243 215
2017 4 2 1 1 251 388 292 204
2018 4 2 1 1 251 292 388 342
2019 4 2 1 1 269 267 359 427
2020 4 2 1 1 269 359 267 147
2021 4 2 1 1 419 359 267 427
2022 4 2 1 1 419 267 359 147
2023 4 2 1 1 262 383 213 407
2024 4 2 1 1 262 213 383 194
2025 4 2 1 1 429 262 264 281
2026 4 2 1 1 264 262 429 407
2027 4 2 1 1 429 355 264 407
2028 4 2 1 1 208 362 203 201
2029 4 2 1 1 208 203 362 423
2030 4 2 1 1 263 346 195 187
2031 4 2 1 1 263 195 346 352
2032 4 2 1 1 393 279 234 248
2033 4 2 1 1 234 279 393 390
2034 4 2 1 1 234 392 393 248
2035 4 2 1 1 393 392 234 390
2036 4 2 1 1 270 421 254 272
2037 4 2 1 1 270 254 421 422
2038 4 2 1 1 228 285 442 155
2039 4 2 1 1 228 442 285 400
2040 4 2 1 1 300 442 285 155
2041 4 2 1 1 300 285 442 400
2042 4 2 1 1 406 226 442 227
2043 4 2 1 1 442 226 406 361
2044 4 2 1 1 220 430 297 280
2045 4 2 1 1 220 297 430 363
2046 4 2 1 1 440 160 104 417
2047 4 2 1 1 440 104 160 289
2048 4 2 1 1 155 431 282 300
2049 4 2 1 1 155 282 431 229
2050 4 2 1 1 399 282 431 300
2051 4 2 1 1 146 429 293 281
2052 4 2 1 1 146 293 429 382
2053 4 2 1 1 355 429 293 382
2054 4 2 1 1 206 370 405 358
2055 4 2 1 1 405 370 206 210
2056 4 2 1 1 248 430 221 280
2057 4 2 1 1 221 430 248 393
2058 4 2 1 1 435 265 294 415
2059 4 2 1 1 435 294 265 245
2060 4 2 1 1 247 364 393 412
2061 4 2 1 1 393 364 247 221
2062 4 2 1 1 430 148 248 394
2063 4 2 1 1 430 248 148 280
2064 4 2 1 1 434 216 65 310
2065 4 2 1 1 434 65 216 284
2066 4 2 1 1 399 146 70 382
2067 4 2 1 1 70 146 399 282
2068 4 2 1 1 290 416 276 158
2069 4 2 1 1 290 276 416 439
2070 4 2 1 1 307 416 276 439
2071 4 2 1 1 385 287 214 433
2072 4 2 1 1 385 214 287 211
2073 4 2 1 1 210 434 216 284
2074 4 2 1 1 216 434 210 370
2075 4 2 1 1 264 429 293 355
2076 4 2 1 1 293 429 264 281
2077 4 2 1 1 282 431 293 399
2078 4 2 1 1 282 293 431 229
2079 4 2 1 1 416 276 418 307
2080 4 2 1 1 416 418 276 158
2081 4 2 1 1 230 418 276 307
2082 4 2 1 1 230 276 418 158
$EndElements
