$MeshFormat
2.2 0 8
$EndMeshFormat
$Nodes
144
1 0 0 1
2 0 0 0
3 0 1 1
4 0 1 0
5 1 0 0
6 1 0 1
7 1 1 1
8 1 1 0
9 2 0 1
10 2 0 0
11 2 1 1
12 2 1 0
13 0 0 0.3333333333333333
14 0 0 0.6666666666666666
15 0 0.3333333333333333 1
16 0 0.6666666666666666 1
17 0 1 0.3333333333333333
18 0 1 0.6666666666666666
19 0 0.3333333333333333 0
20 0 0.6666666666666666 0
21 1 0 0.3333333333333333
22 1 0 0.6666666666666666
23 1 0.3333333333333333 1
24 1 0.6666666666666666 1
25 1 1 0.3333333333333333
26 1 1 0.6666666666666666
27 1 0.3333333333333333 0
28 1 0.6666666666666666 0
29 0.3333333333333333 0 0
30 0.6666666666666666 0 0
31 0.3333333333333333 0 1
32 0.6666666666666666 0 1
33 0.3333333333333333 1 0
34 0.6666666666666666 1 0
35 0.3333333333333333 1 1
36 0.6666666666666666 1 1
37 2 0 0.3333333333333333
38 2 0 0.6666666666666666
39 2 0.3333333333333333 1
40 2 0.6666666666666666 1
41 2 1 0.3333333333333333
42 2 1 0.6666666666666666
43 2 0.3333333333333333 0
44 2 0.6666666666666666 0
45 1.333333333333333 0 0
46 1.666666666666667 0 0
47 1.333333333333333 0 1
48 1.666666666666667 0 1
49 1.333333333333333 1 0
50 1.666666666666667 1 0
51 1.333333333333333 1 1
52 1.666666666666667 1 1
53 0 0.5 0.295191706296517
54 0 0.5 0.7050506247151784
55 0 0.2474399182838952 0.5000403885019492
56 0 0.7525600817161049 0.5000403885019492
57 0 0.7576802451483147 0.7576802451483147
58 0 0.2423197548516856 0.2423197548516855
59 0 0.2423197548516855 0.7576802451483146
60 0 0.7576802451483144 0.2423197548516854
61 1 0.5 0.295191706296517
62 1 0.5 0.7050506247151784
63 1 0.2474399182838952 0.5000403885019492
64 1 0.7525600817161049 0.5000403885019492
65 1 0.7576802451483147 0.7576802451483147
66 1 0.2423197548516856 0.2423197548516855
67 1 0.2423197548516855 0.7576802451483146
68 1 0.7576802451483144 0.2423197548516854
69 0.295191706296517 0 0.5
70 0.7050506247151784 0 0.5
71 0.5000403885019492 0 0.2474399182838952
72 0.5000403885019492 0 0.7525600817161049
73 0.7576802451483147 0 0.7576802451483147
74 0.2423197548516855 0 0.2423197548516856
75 0.2423197548516854 0 0.7576802451483144
76 0.7576802451483146 0 0.2423197548516855
77 0.295191706296517 1 0.5
78 0.7050506247151784 1 0.5
79 0.5000403885019492 1 0.2474399182838952
80 0.5000403885019492 1 0.7525600817161049
81 0.7576802451483147 1 0.7576802451483147
82 0.2423197548516855 1 0.2423197548516856
83 0.2423197548516854 1 0.7576802451483144
84 0.7576802451483146 1 0.2423197548516855
85 0.5 0.295191706296517 0
86 0.5 0.7050506247151784 0
87 0.2474399182838952 0.5000403885019492 0
88 0.7525600817161049 0.5000403885019492 0
89 0.7576802451483147 0.7576802451483147 0
90 0.2423197548516856 0.2423197548516855 0
91 0.2423197548516855 0.7576802451483146 0
92 0.7576802451483144 0.2423197548516854 0
93 0.5 0.295191706296517 1
94 0.5 0.7050506247151784 1
95 0.2474399182838952 0.5000403885019492 1
96 0.7525600817161049 0.5000403885019492 1
97 0.7576802451483147 0.7576802451483147 1
98 0.2423197548516856 0.2423197548516855 1
99 0.2423197548516855 0.7576802451483146 1
100 0.7576802451483144 0.2423197548516854 1
101 2 0.5 0.295191706296517
102 2 0.5 0.7050506247151784
103 2 0.2474399182838952 0.5000403885019492
104 2 0.7525600817161049 0.5000403885019492
105 2 0.7576802451483147 0.7576802451483147
106 2 0.2423197548516856 0.2423197548516855
107 2 0.2423197548516855 0.7576802451483146
108 2 0.7576802451483144 0.2423197548516854
109 1.295191706296517 0 0.5
110 1.705050624715178 0 0.5
111 1.500040388501949 0 0.2474399182838952
112 1.500040388501949 0 0.7525600817161049
113 1.757680245148315 0 0.2423197548516855
114 1.757680245148315 0 0.7576802451483147
115 1.242319754851685 0 0.7576802451483144
116 1.242319754851686 0 0.2423197548516856
117 1.295191706296517 1 0.5
118 1.705050624715178 1 0.5
119 1.500040388501949 1 0.2474399182838952
120 1.500040388501949 1 0.7525600817161049
121 1.757680245148315 1 0.2423197548516855
122 1.757680245148315 1 0.7576802451483147
123 1.242319754851685 1 0.7576802451483144
124 1.242319754851686 1 0.2423197548516856
125 1.295191706296517 0.5 0
126 1.705050624715178 0.4999999999999999 0
127 1.500040388501949 0.7525600817161049 0
128 1.500040388501949 0.2474399182838951 0
129 1.242319754851686 0.2423197548516856 0
130 1.757680245148315 0.2423197548516853 0
131 1.757680245148315 0.7576802451483146 0
132 1.242319754851685 0.7576802451483144 0
133 1.295191706296517 0.5 1
134 1.705050624715178 0.4999999999999999 1
135 1.500040388501949 0.7525600817161049 1
136 1.500040388501949 0.2474399182838951 1
137 1.242319754851686 0.2423197548516856 1
138 1.757680245148315 0.2423197548516853 1
139 1.757680245148315 0.7576802451483146 1
140 1.242319754851685 0.7576802451483144 1
141 0.4999999999999999 0.5 0.4999999999999999
142 1.500121165505848 0.4568607239879753 0.4568607239879752
143 1.369783117567017 0.6848052402613322 0.6848052402613322
144 1.702018431820837 0.6636965255512081 0.6306772094969844
$EndNodes
$Elements
494
1 2 2 10 1 14 1 59
2 2 2 10 1 1 15 59
3 2 2 10 1 2 13 58
4 2 2 10 1 19 2 58
5 2 2 10 1 16 3 57
6 2 2 10 1 3 18 57
7 2 2 10 1 17 4 60
8 2 2 10 1 4 20 60
9 2 2 10 1 13 14 55
10 2 2 10 1 13 55 58
11 2 2 10 1 55 14 59
12 2 2 10 1 15 16 54
13 2 2 10 1 15 54 59
14 2 2 10 1 54 16 57
15 2 2 10 1 18 17 56
16 2 2 10 1 56 17 60
17 2 2 10 1 18 56 57
18 2 2 10 1 20 19 53
19 2 2 10 1 53 19 58
20 2 2 10 1 20 53 60
21 2 2 10 1 54 53 55
22 2 2 10 1 53 54 56
23 2 2 10 1 55 53 58
24 2 2 10 1 53 56 60
25 2 2 10 1 54 55 59
26 2 2 10 1 56 54 57
27 2 2 4 5 2 19 90
28 2 2 4 5 29 2 90
29 2 2 4 5 20 4 91
30 2 2 4 5 4 33 91
31 2 2 4 5 27 5 92
32 2 2 4 5 5 30 92
33 2 2 4 5 8 28 89
34 2 2 4 5 34 8 89
35 2 2 4 5 19 20 87
36 2 2 4 5 19 87 90
37 2 2 4 5 87 20 91
38 2 2 4 5 28 27 88
39 2 2 4 5 88 27 92
40 2 2 4 5 28 88 89
41 2 2 4 5 30 29 85
42 2 2 4 5 85 29 90
43 2 2 4 5 30 85 92
44 2 2 4 5 33 34 86
45 2 2 4 5 33 86 91
46 2 2 4 5 86 34 89
47 2 2 4 5 86 85 87
48 2 2 4 5 85 86 88
49 2 2 4 5 87 85 90
50 2 2 4 5 85 88 92
51 2 2 4 5 86 87 91
52 2 2 4 5 88 86 89
53 2 2 2 7 38 107 9
54 2 2 2 7 9 107 39
55 2 2 2 7 10 106 37
56 2 2 2 7 43 106 10
57 2 2 2 7 40 105 11
58 2 2 2 7 11 105 42
59 2 2 2 7 41 108 12
60 2 2 2 7 12 108 44
61 2 2 2 7 37 103 38
62 2 2 2 7 37 106 103
63 2 2 2 7 103 107 38
64 2 2 2 7 39 102 40
65 2 2 2 7 39 107 102
66 2 2 2 7 102 105 40
67 2 2 2 7 42 104 41
68 2 2 2 7 104 108 41
69 2 2 2 7 42 105 104
70 2 2 2 7 44 101 43
71 2 2 2 7 101 106 43
72 2 2 2 7 44 108 101
73 2 2 2 7 102 103 101
74 2 2 2 7 101 104 102
75 2 2 2 7 103 106 101
76 2 2 2 7 101 108 104
77 2 2 2 7 102 107 103
78 2 2 2 7 104 105 102
79 2 2 4 10 5 27 129
80 2 2 4 10 45 5 129
81 2 2 4 10 28 8 132
82 2 2 4 10 8 49 132
83 2 2 4 10 43 10 130
84 2 2 4 10 10 46 130
85 2 2 4 10 12 44 131
86 2 2 4 10 50 12 131
87 2 2 4 10 27 28 125
88 2 2 4 10 27 125 129
89 2 2 4 10 125 28 132
90 2 2 4 10 44 43 126
91 2 2 4 10 126 43 130
92 2 2 4 10 44 126 131
93 2 2 4 10 46 45 128
94 2 2 4 10 128 45 129
95 2 2 4 10 46 128 130
96 2 2 4 10 49 50 127
97 2 2 4 10 49 127 132
98 2 2 4 10 127 50 131
99 2 2 4 10 126 125 127
100 2 2 4 10 125 126 128
101 2 2 4 10 127 125 132
102 2 2 4 10 125 128 129
103 2 2 4 10 126 127 131
104 2 2 4 10 128 126 130
105 4 2 1 1 81 65 97 141
106 4 2 1 1 100 67 73 141
107 4 2 1 1 89 68 84 141
108 4 2 1 1 57 83 99 141
109 4 2 1 1 76 66 92 141
110 4 2 1 1 82 60 91 141
111 4 2 1 1 98 75 59 141
112 4 2 1 1 90 58 74 141
113 4 2 1 1 73 72 93 141
114 4 2 1 1 77 57 56 141
115 4 2 1 1 76 85 71 141
116 4 2 1 1 81 94 80 141
117 4 2 1 1 96 97 62 141
118 4 2 1 1 75 93 72 141
119 4 2 1 1 74 71 85 141
120 4 2 1 1 83 80 94 141
121 4 2 1 1 96 62 100 141
122 4 2 1 1 78 68 64 141
123 4 2 1 1 70 63 66 141
124 4 2 1 1 86 79 82 141
125 4 2 1 1 57 77 83 141
126 4 2 1 1 98 93 75 141
127 4 2 1 1 93 100 73 141
128 4 2 1 1 85 76 92 141
129 4 2 1 1 74 85 90 141
130 4 2 1 1 97 94 81 141
131 4 2 1 1 97 65 62 141
132 4 2 1 1 78 84 68 141
133 4 2 1 1 67 100 62 141
134 4 2 1 1 70 66 76 141
135 4 2 1 1 83 94 99 141
136 4 2 1 1 82 91 86 141
137 4 2 1 1 69 75 72 141
138 4 2 1 1 88 85 92 141
139 4 2 1 1 83 77 80 141
140 4 2 1 1 93 96 100 141
141 4 2 1 1 60 56 53 141
142 4 2 1 1 61 64 68 141
143 4 2 1 1 74 69 71 141
144 4 2 1 1 61 66 63 141
145 4 2 1 1 79 77 82 141
146 4 2 1 1 58 53 55 141
147 4 2 1 1 95 93 98 141
148 4 2 1 1 85 87 90 141
149 4 2 1 1 73 70 72 141
150 4 2 1 1 81 80 78 141
151 4 2 1 1 96 94 97 141
152 4 2 1 1 64 62 65 141
153 4 2 1 1 89 86 88 141
154 4 2 1 1 67 62 63 141
155 4 2 1 1 94 95 99 141
156 4 2 1 1 54 56 57 141
157 4 2 1 1 84 78 79 141
158 4 2 1 1 70 76 71 141
159 4 2 1 1 59 55 54 141
160 4 2 1 1 86 91 87 141
161 4 2 1 1 61 63 62 141
162 4 2 1 1 94 96 93 141
163 4 2 1 1 64 61 62 141
164 4 2 1 1 69 70 71 141
165 4 2 1 1 70 69 72 141
166 4 2 1 1 78 77 79 141
167 4 2 1 1 94 93 95 141
168 4 2 1 1 86 85 88 141
169 4 2 1 1 87 85 86 141
170 4 2 1 1 80 77 78 141
171 4 2 1 1 53 56 54 141
172 4 2 1 1 54 55 53 141
173 4 2 1 1 98 15 95 59
174 4 2 1 1 16 57 99 95
175 4 2 1 1 79 84 89 34
176 4 2 1 1 58 90 19 87
177 4 2 1 1 74 58 13 55
178 4 2 1 1 17 60 82 56
179 4 2 1 1 27 88 92 66
180 4 2 1 1 63 67 73 22
181 4 2 1 1 26 65 81 64
182 4 2 1 1 88 28 89 68
183 4 2 1 1 20 87 91 60
184 4 2 1 1 59 75 14 55
185 4 2 1 1 15 54 95 59
186 4 2 1 1 27 61 88 66
187 4 2 1 1 69 74 13 55
188 4 2 1 1 77 17 82 56
189 4 2 1 1 19 53 58 87
190 4 2 1 1 79 89 86 34
191 4 2 1 1 57 16 54 95
192 4 2 1 1 28 88 61 68
193 4 2 1 1 87 20 53 60
194 4 2 1 1 69 14 75 55
195 4 2 1 1 63 73 70 22
196 4 2 1 1 81 78 26 64
197 4 2 1 1 58 2 90 74
198 4 2 1 1 60 91 4 82
199 4 2 1 1 92 76 5 66
200 4 2 1 1 57 83 3 99
201 4 2 1 1 75 1 98 59
202 4 2 1 1 6 73 100 67
203 4 2 1 1 84 89 8 68
204 4 2 1 1 97 81 7 65
205 4 2 1 1 56 77 17 18
206 4 2 1 1 69 13 14 55
207 4 2 1 1 71 30 29 85
208 4 2 1 1 88 28 61 27
209 4 2 1 1 53 19 20 87
210 4 2 1 1 32 72 31 93
211 4 2 1 1 16 15 54 95
212 4 2 1 1 86 79 34 33
213 4 2 1 1 80 36 35 94
214 4 2 1 1 26 78 25 64
215 4 2 1 1 70 21 63 22
216 4 2 1 1 23 96 24 62
217 4 2 1 1 57 3 16 99
218 4 2 1 1 84 8 89 34
219 4 2 1 1 1 15 98 59
220 4 2 1 1 91 33 4 82
221 4 2 1 1 99 83 3 35
222 4 2 1 1 81 7 36 97
223 4 2 1 1 90 2 29 74
224 4 2 1 1 13 2 58 74
225 4 2 1 1 23 6 100 67
226 4 2 1 1 91 4 20 60
227 4 2 1 1 3 18 83 57
228 4 2 1 1 6 73 32 100
229 4 2 1 1 89 28 8 68
230 4 2 1 1 58 90 2 19
231 4 2 1 1 76 21 5 66
232 4 2 1 1 30 76 5 92
233 4 2 1 1 27 92 5 66
234 4 2 1 1 65 81 7 26
235 4 2 1 1 4 17 60 82
236 4 2 1 1 1 98 31 75
237 4 2 1 1 75 14 1 59
238 4 2 1 1 25 84 8 68
239 4 2 1 1 6 73 67 22
240 4 2 1 1 24 97 7 65
241 4 2 1 1 73 93 32 100
242 4 2 1 1 32 93 73 72
243 4 2 1 1 88 68 141 61
244 4 2 1 1 141 68 88 89
245 4 2 1 1 57 77 18 83
246 4 2 1 1 57 18 77 56
247 4 2 1 1 85 76 30 92
248 4 2 1 1 85 30 76 71
249 4 2 1 1 87 60 141 91
250 4 2 1 1 141 60 87 53
251 4 2 1 1 55 75 141 59
252 4 2 1 1 55 141 75 69
253 4 2 1 1 81 64 141 78
254 4 2 1 1 141 64 81 65
255 4 2 1 1 62 97 24 65
256 4 2 1 1 62 24 97 96
257 4 2 1 1 81 94 36 80
258 4 2 1 1 36 94 81 97
259 4 2 1 1 57 95 141 99
260 4 2 1 1 141 95 57 54
261 4 2 1 1 73 63 141 67
262 4 2 1 1 141 63 73 70
263 4 2 1 1 89 79 141 84
264 4 2 1 1 141 79 89 86
265 4 2 1 1 85 74 29 71
266 4 2 1 1 85 29 74 90
267 4 2 1 1 74 55 141 58
268 4 2 1 1 141 55 74 69
269 4 2 1 1 58 87 141 90
270 4 2 1 1 141 87 58 53
271 4 2 1 1 66 88 141 61
272 4 2 1 1 66 141 88 92
273 4 2 1 1 82 56 141 77
274 4 2 1 1 141 56 82 60
275 4 2 1 1 75 93 31 72
276 4 2 1 1 31 93 75 98
277 4 2 1 1 78 68 25 64
278 4 2 1 1 25 68 78 84
279 4 2 1 1 94 83 35 80
280 4 2 1 1 94 35 83 99
281 4 2 1 1 95 59 141 98
282 4 2 1 1 141 59 95 54
283 4 2 1 1 100 62 23 67
284 4 2 1 1 23 62 100 96
285 4 2 1 1 82 86 33 79
286 4 2 1 1 82 33 86 91
287 4 2 1 1 66 70 21 63
288 4 2 1 1 66 21 70 76
289 4 2 2 2 119 132 127 142
290 4 2 2 2 137 136 112 142
291 4 2 2 2 138 112 136 142
292 4 2 2 2 131 119 127 142
293 4 2 2 2 67 137 142 143
294 4 2 2 2 124 68 142 143
295 4 2 2 2 67 137 115 142
296 4 2 2 2 132 124 68 142
297 4 2 2 2 114 138 107 142
298 4 2 2 2 112 115 137 142
299 4 2 2 2 119 124 132 142
300 4 2 2 2 114 112 138 142
301 4 2 2 2 121 119 131 142
302 4 2 2 2 138 107 142 144
303 4 2 2 2 121 142 131 144
304 4 2 2 2 131 142 108 144
305 4 2 2 2 119 142 121 144
306 4 2 2 2 121 131 108 144
307 4 2 2 2 62 67 142 143
308 4 2 2 2 64 68 117 143
309 4 2 2 2 124 117 68 143
310 4 2 2 2 67 133 137 143
311 4 2 2 2 67 109 63 142
312 4 2 2 2 138 136 134 142
313 4 2 2 2 138 142 134 144
314 4 2 2 2 119 143 142 144
315 4 2 2 2 116 129 66 142
316 4 2 2 2 106 130 113 142
317 4 2 2 2 128 129 111 142
318 4 2 2 2 128 111 113 142
319 4 2 2 2 115 109 67 142
320 4 2 2 2 132 68 61 142
321 4 2 2 2 101 108 131 142
322 4 2 2 2 101 108 142 144
323 4 2 2 2 116 111 129 142
324 4 2 2 2 113 130 128 142
325 4 2 2 2 67 63 62 142
326 4 2 2 2 62 133 67 143
327 4 2 2 2 112 109 115 142
328 4 2 2 2 132 125 127 142
329 4 2 2 2 114 110 112 142
330 4 2 2 2 131 127 126 142
331 4 2 2 2 134 142 136 143
332 4 2 2 2 138 134 107 144
333 4 2 2 2 66 63 109 142
334 4 2 2 2 103 106 110 142
335 4 2 2 2 61 125 132 142
336 4 2 2 2 131 126 101 142
337 4 2 2 2 118 119 121 144
338 4 2 2 2 125 66 129 142
339 4 2 2 2 116 66 109 142
340 4 2 2 2 113 110 106 142
341 4 2 2 2 126 130 106 142
342 4 2 2 2 142 143 134 144
343 4 2 2 2 66 61 63 142
344 4 2 2 2 103 101 106 142
345 4 2 2 2 119 118 143 144
346 4 2 2 2 121 108 104 144
347 4 2 2 2 102 107 134 144
348 4 2 2 2 101 142 103 144
349 4 2 2 2 66 125 61 142
350 4 2 2 2 106 101 126 142
351 4 2 2 2 116 109 111 142
352 4 2 2 2 128 125 129 142
353 4 2 2 2 128 130 126 142
354 4 2 2 2 110 113 111 142
355 4 2 2 2 63 61 62 142
356 4 2 2 2 62 142 61 143
357 4 2 2 2 121 104 118 144
358 4 2 2 2 64 62 61 143
359 4 2 2 2 134 136 133 143
360 4 2 2 2 119 118 117 143
361 4 2 2 2 101 104 108 144
362 4 2 2 2 110 109 112 142
363 4 2 2 2 127 125 126 142
364 4 2 2 2 125 128 126 142
365 4 2 2 2 110 111 109 142
366 4 2 2 2 102 101 103 144
367 4 2 2 2 120 139 135 144
368 4 2 2 2 135 134 143 144
369 4 2 2 2 122 139 120 144
370 4 2 2 2 120 143 118 144
371 4 2 2 2 120 135 143 144
372 4 2 2 2 65 64 123 143
373 4 2 2 2 120 117 118 143
374 4 2 2 2 134 133 135 143
375 4 2 2 2 140 133 65 143
376 4 2 2 2 135 140 120 143
377 4 2 2 2 105 102 139 144
378 4 2 2 2 140 120 51 135
379 4 2 2 2 49 119 132 127
380 4 2 2 2 129 111 45 128
381 4 2 2 2 137 136 47 112
382 4 2 2 2 135 120 52 139
383 4 2 2 2 50 131 119 127
384 4 2 2 2 48 112 136 138
385 4 2 2 2 113 128 46 111
386 4 2 2 2 104 101 102 144
387 4 2 2 2 123 64 117 143
388 4 2 2 2 105 122 104 144
389 4 2 2 2 140 123 120 143
390 4 2 2 2 133 65 24 140
391 4 2 2 2 67 133 23 137
392 4 2 2 2 131 101 44 108
393 4 2 2 2 132 28 61 68
394 4 2 2 2 66 27 125 129
395 4 2 2 2 139 40 102 105
396 4 2 2 2 134 138 107 39
397 4 2 2 2 126 43 106 130
398 4 2 2 2 115 137 47 112
399 4 2 2 2 49 119 124 132
400 4 2 2 2 120 140 51 123
401 4 2 2 2 111 129 45 116
402 4 2 2 2 120 52 139 122
403 4 2 2 2 50 131 121 119
404 4 2 2 2 128 113 46 130
405 4 2 2 2 48 114 112 138
406 4 2 2 2 121 41 104 108
407 4 2 2 2 105 122 42 104
408 4 2 2 2 107 103 38 114
409 4 2 2 2 123 65 26 64
410 4 2 2 2 133 62 65 143
411 4 2 2 2 135 139 134 144
412 4 2 2 2 64 65 62 143
413 4 2 2 2 139 102 134 144
414 4 2 2 2 122 105 139 144
415 4 2 2 2 122 118 104 144
416 4 2 2 2 123 140 65 143
417 4 2 2 2 132 61 28 125
418 4 2 2 2 27 125 61 66
419 4 2 2 2 101 131 44 126
420 4 2 2 2 133 67 23 62
421 4 2 2 2 65 133 24 62
422 4 2 2 2 102 134 40 139
423 4 2 2 2 134 107 102 39
424 4 2 2 2 126 43 101 106
425 4 2 2 2 41 104 118 121
426 4 2 2 2 103 110 38 114
427 4 2 2 2 122 42 104 118
428 4 2 2 2 26 117 123 64
429 4 2 2 2 132 124 8 68
430 4 2 2 2 140 65 7 123
431 4 2 2 2 108 121 12 131
432 4 2 2 2 10 113 106 130
433 4 2 2 2 9 107 114 138
434 4 2 2 2 105 139 11 122
435 4 2 2 2 129 66 5 116
436 4 2 2 2 6 137 115 67
437 4 2 2 2 122 120 118 144
438 4 2 2 2 125 61 28 27
439 4 2 2 2 23 24 133 62
440 4 2 2 2 43 101 44 126
441 4 2 2 2 102 134 39 40
442 4 2 2 2 136 47 112 48
443 4 2 2 2 128 111 45 46
444 4 2 2 2 135 120 51 52
445 4 2 2 2 119 49 50 127
446 4 2 2 2 25 117 26 64
447 4 2 2 2 22 21 63 109
448 4 2 2 2 42 104 118 41
449 4 2 2 2 38 110 103 37
450 4 2 2 2 8 49 124 132
451 4 2 2 2 45 129 5 116
452 4 2 2 2 6 137 47 115
453 4 2 2 2 123 7 140 51
454 4 2 2 2 130 10 113 46
455 4 2 2 2 48 9 114 138
456 4 2 2 2 139 52 11 122
457 4 2 2 2 131 121 12 50
458 4 2 2 2 107 38 9 114
459 4 2 2 2 11 40 139 105
460 4 2 2 2 11 105 122 42
461 4 2 2 2 138 9 107 39
462 4 2 2 2 113 37 10 106
463 4 2 2 2 121 12 41 108
464 4 2 2 2 137 6 23 67
465 4 2 2 2 67 115 6 22
466 4 2 2 2 65 7 24 140
467 4 2 2 2 131 12 108 44
468 4 2 2 2 106 43 10 130
469 4 2 2 2 66 21 5 116
470 4 2 2 2 66 5 27 129
471 4 2 2 2 124 25 8 68
472 4 2 2 2 132 8 28 68
473 4 2 2 2 123 65 7 26
474 4 2 2 2 135 133 140 143
475 4 2 2 2 123 117 120 143
476 4 2 2 2 104 102 105 144
477 4 2 2 2 143 124 119 142
478 4 2 2 2 143 119 124 117
479 4 2 2 2 143 137 136 133
480 4 2 2 2 143 136 137 142
481 4 2 2 2 144 107 103 102
482 4 2 2 2 144 103 107 142
483 4 2 2 2 67 109 22 63
484 4 2 2 2 22 109 67 115
485 4 2 2 2 103 114 142 110
486 4 2 2 2 142 114 103 107
487 4 2 2 2 68 117 25 64
488 4 2 2 2 68 25 117 124
489 4 2 2 2 66 109 21 116
490 4 2 2 2 21 109 66 63
491 4 2 2 2 106 110 37 103
492 4 2 2 2 106 37 110 113
493 4 2 2 2 61 143 68 64
494 4 2 2 2 68 143 61 142
$EndElements
